<?xml version="1.0" encoding="UTF-8"?>
<svg width="53px" height="59px" viewBox="0 0 53 59" version="1.1" xmlns="http://www.w3.org/2000/svg" xmlns:xlink="http://www.w3.org/1999/xlink">
    <!-- Generator: sketchtool 64 (101010) - https://sketch.com -->
    <title>D83BE27A-7861-4C4F-873F-EF544A33B565</title>
    <desc>Created with sketchtool.</desc>
    <g id="About-Us-Page" stroke="none" stroke-width="1" fill="none" fill-rule="evenodd" stroke-linecap="round" stroke-linejoin="round">
        <g id="about-us--copy" transform="translate(-162.000000, -3258.000000)" stroke="#FFFFFF" stroke-width="2.3184">
            <g id="Group-11" transform="translate(163.000000, 3259.625000)">
                <path d="M16.834027,0.4592 C13.775027,0.4592 11.294017,2.94021 11.294017,5.99921 C11.294017,8.06645 12.425847,9.86965 14.103467,10.82116 C14.927787,11.30577 15.885737,11.5843 16.911307,11.5843 C19.970307,11.5843 22.451317,9.10329 22.451317,6.04429 C22.451317,3.97705 21.319487,2.17546 19.641867,1.22234 C18.819157,0.73773 17.857987,0.4592 16.834027,0.4592 Z" id="Stroke-1"></path>
                <path d="M16.41591,36.063062 L16.42879,52.879512 C16.43201,56.840112 8.60419,56.780542 8.64766,52.821552 L8.78934,40.991272 L8.96966,21.655172 L6.02497,30.450602 C4.01891,35.728182 -0.3297,32.294052 0.58478,29.890322 L4.43429,15.701392 C5.58222,11.465482 27.48305,11.682832 28.39914,15.657922 L30.00753,22.638882" id="Stroke-3"></path>
                <path d="M24.3809089,42.826994 C24.382512,43.078154 24.102372,53.349954 24.054072,53.568914 C23.289322,57.102864 16.427502,56.555464 16.425892,52.821874" id="Stroke-5"></path>
                <path d="M35.730436,51.834461 C27.050926,48.078331 21.192136,40.950861 21.192136,32.773671 C21.192136,28.584451 21.242046,24.385571 21.242046,20.193131 C22.542926,21.724241 25.162396,22.770741 28.182756,22.770741 C31.795596,22.770741 34.835276,21.273441 35.730436,19.238401 C36.625596,21.273441 39.663666,22.770741 43.276506,22.770741 C46.296866,22.770741 48.917946,21.724241 50.218826,20.193131 C50.218826,24.385571 50.268736,28.584451 50.268736,32.773671 C50.268736,40.950861 44.409946,48.078331 35.730436,51.834461 Z" id="Stroke-7"></path>
                <polyline id="Stroke-9" points="30.074989 35.099316 35.703549 41.619816 43.663389 29.454656"></polyline>
            </g>
        </g>
    </g>
</svg>