<?xml version="1.0" encoding="UTF-8"?>
<svg width="59px" height="59px" viewBox="0 0 59 59" version="1.1" xmlns="http://www.w3.org/2000/svg" xmlns:xlink="http://www.w3.org/1999/xlink">
    <!-- Generator: sketchtool 64 (101010) - https://sketch.com -->
    <title>44984503-1EE7-4F49-9554-541941025168</title>
    <desc>Created with sketchtool.</desc>
    <g id="About-Us-Page" stroke="none" stroke-width="1" fill="none" fill-rule="evenodd" stroke-linecap="round" stroke-linejoin="round">
        <g id="about-us--copy" transform="translate(-405.000000, -3258.000000)" stroke="#FED500" stroke-width="2.25225">
            <g id="Group-30" transform="translate(406.450000, 3259.625000)">
                <g id="Group-29">
                    <path d="M27.7258212,27.1686492 C30.4694082,27.1686492 32.6941692,29.5999242 32.6941692,32.5996902 C32.6941692,34.6257912 31.6789242,36.3929412 30.1739592,37.3261812 C29.4356832,37.8011172 28.5759012,38.0741592 27.6569832,38.0741592 C24.9133962,38.0741592 22.6888662,35.6426532 22.6888662,32.6431182 C22.6888662,30.6170172 23.7036492,28.8507912 25.2079212,27.9170892 C25.9459662,27.4414602 26.8069032,27.1686492 27.7258212,27.1686492 Z" id="Stroke-1"></path>
                    <path d="M2.9352708,0.2022405 L52.7638188,0.2022405 C54.2671668,0.2022405 55.4970108,1.4327775 55.4970108,2.9356635 L55.4970108,14.0650125 C55.4970108,15.5678985 54.2664738,16.7982045 52.7638188,16.7982045 L44.4780798,16.7982045 L44.4436608,22.8072075 L38.5818048,16.7982045 L30.7977978,16.7982045 L27.8495448,22.8072075 L24.9015228,16.7982045 L17.1175158,16.7982045 L11.2554288,22.8072075 L11.2210098,16.7982045 L2.9352708,16.7982045 C1.4326158,16.7982045 0.2020788,15.5683605 0.2020788,14.0650125 L0.2020788,2.9356635 C0.2020788,1.4323155 1.4319228,0.2022405 2.9352708,0.2022405 Z" id="Stroke-3"></path>
                    <path d="M11.6018364,27.1686492 C14.3454234,27.1686492 16.5701844,29.5999242 16.5701844,32.5996902 C16.5701844,34.6257912 15.5547084,36.3929412 14.0499744,37.3261812 C13.3114674,37.8011172 12.4519164,38.0741592 11.5329984,38.0741592 C8.7894114,38.0741592 6.5648814,35.6426532 6.5648814,32.6431182 C6.5648814,30.6170172 7.5796644,28.8507912 9.0837054,27.9170892 C9.8219814,27.4414602 10.6829184,27.1686492 11.6018364,27.1686492 Z" id="Stroke-5"></path>
                    <line x1="34.4207556" y1="55.3593348" x2="34.3692426" y2="49.2877308" id="Stroke-7"></line>
                    <path d="M38.8593744,55.3593348 L38.4366444,44.7945498 C38.2654734,40.4967948 18.0107004,40.8164988 17.3551224,44.7515838 C16.8836514,46.8906438 16.7690754,51.4399578 16.7071674,55.3593348" id="Stroke-9"></path>
                    <line x1="21.3909003" y1="49.2878232" x2="21.3391563" y2="55.3594272" id="Stroke-11"></line>
                    <path d="M19.0256451,42.4597866 C13.2746691,40.8675036 1.5719781,41.7760266 1.0764831,44.7515376 C0.6050121,46.8908286 0.4904361,51.4399116 0.4280661,55.3592886" id="Stroke-13"></path>
                    <line x1="5.1121686" y1="49.2878232" x2="5.0604246" y2="55.3594272" id="Stroke-15"></line>
                    <path d="M37.0125063,42.4597866 C42.7634823,40.8675036 54.4661733,41.7760266 54.9616683,44.7515376 C55.4331393,46.8908286 55.5477153,51.4399116 55.6100853,55.3592886" id="Stroke-17"></path>
                    <line x1="50.9259828" y1="49.2878232" x2="50.9777268" y2="55.3594272" id="Stroke-19"></line>
                    <path d="M44.436315,27.1686492 C41.692728,27.1686492 39.467967,29.5999242 39.467967,32.5996902 C39.467967,34.6257912 40.483212,36.3929412 41.988177,37.3261812 C42.726453,37.8011172 43.586235,38.0741592 44.505153,38.0741592 C47.24874,38.0741592 49.47327,35.6426532 49.47327,32.6431182 C49.47327,30.6170172 48.458487,28.8507912 46.954215,27.9170892 C46.21617,27.4414602 45.355233,27.1686492 44.436315,27.1686492 Z" id="Stroke-21"></path>
                    <path d="M32.6859918,9.5519886 C32.6554998,9.7291656 32.6333238,9.9162756 32.6213118,10.1147046" id="Stroke-23"></path>
                    <path d="M27.881931,9.5519886 C27.85167,9.7291656 27.829494,9.9162756 27.817482,10.1147046" id="Stroke-25"></path>
                    <path d="M23.0780781,9.5519886 C23.0478171,9.7291656 23.0258721,9.9162756 23.0133981,10.1147046" id="Stroke-27"></path>
                </g>
            </g>
        </g>
    </g>
</svg>