<?xml version="1.0" encoding="UTF-8"?>
<svg width="62px" height="52px" viewBox="0 0 62 52" version="1.1" xmlns="http://www.w3.org/2000/svg" xmlns:xlink="http://www.w3.org/1999/xlink">
    <!-- Generator: sketchtool 64 (101010) - https://sketch.com -->
    <title>0D3D35CD-CCE9-421E-BF90-197F1D469E83</title>
    <desc>Created with sketchtool.</desc>
    <g id="About-Us-Page" stroke="none" stroke-width="1" fill="none" fill-rule="evenodd">
        <g id="about-us--copy" transform="translate(-640.000000, -3262.000000)" stroke="#7DD2E3" stroke-width="2.413125">
            <g id="Group-5" transform="translate(641.875000, 3263.125000)">
                <path d="M31.6047848,43.2624307 L35.3328773,47.0209657 C38.3496548,50.0619982 44.2067423,45.7215907 40.4435048,41.7702532 M33.8723798,34.7902582 L41.3352473,42.4573132 C44.3233148,45.5263132 50.3722148,40.9884007 46.5785348,37.0729507 L39.2842148,29.5464757 M37.3220348,16.8014632 L51.8062298,31.9853407 C54.7628648,35.0847832 50.3724623,40.9861732 46.5782873,37.0731982 L39.7888673,30.0729082 M7.70667975,29.2576432 L3.96447975,25.5206407 C-8.50729275,13.0674307 13.0932698,-8.31409425 25.7516573,4.00769325 L28.2736823,6.51709575 M51.4914098,31.0280107 L55.2395498,27.2853157 C61.6997948,20.8344757 58.5058073,12.1187632 53.3013773,6.52377825 C51.5857073,4.67866575 49.6262498,3.08006325 47.5972448,1.94329575 C44.9539448,0.46052325 36.6659123,-1.70906175 31.2464048,3.56615325 L19.9980248,14.7590932 C16.9619423,17.7810682 24.6235523,20.7040432 28.5013823,16.8823957 L31.3350098,14.0901007 C35.5212248,10.2939457 40.7815898,17.9011057 47.3381123,12.7271182" id="Stroke-1" stroke-linecap="round" stroke-linejoin="round"></path>
                <path d="M32.2488045,39.0288196 L32.6467845,39.4267996 C33.992937,40.7729521 33.9892245,42.9841171 32.6467845,44.3265571 L29.1877245,47.7856171 C27.845532,49.1280571 25.631397,49.1290471 24.287967,47.7856171 L23.889987,47.3873896 C22.546557,46.0444546 22.5423495,43.8347746 23.8897395,42.4876321 L27.3487995,39.0285721 C28.6961895,37.6811821 30.9024045,37.6824196 32.2488045,39.0288196 Z M28.6268895,31.7033146 L29.025117,32.1015421 C30.372507,33.4491796 30.370527,35.6563846 29.0253645,37.0015471 L23.392017,42.6346471 C22.0468545,43.9800571 19.837422,43.9800571 18.492012,42.6343996 L18.0937845,42.2364196 C16.748622,40.8910096 16.746147,38.6840521 18.0937845,37.3366621 L23.727132,31.7033146 C25.074522,30.3559246 27.2794995,30.3559246 28.6268895,31.7033146 Z M25.2688095,24.0253696 L25.667037,24.4235971 C27.0146745,25.7712346 27.009972,27.9801721 25.666542,29.3236021 L17.450037,37.5403546 C16.106607,38.8835371 13.8932145,38.8835371 12.5502795,37.5403546 L12.152052,37.1423746 C10.8088695,35.7989446 10.804662,33.5897596 12.152052,32.2423696 L20.3688045,24.0258646 C21.716442,22.6782271 23.921172,22.6777321 25.2688095,24.0253696 Z M16.5914595,21.6642196 L16.989687,22.0624471 C18.3348495,23.4076096 18.3318795,25.6200121 16.9894395,26.9624521 L11.831292,32.1230746 C10.489347,33.4652671 8.276202,33.4674946 6.9315345,32.1230746 L6.533307,31.7248471 C5.188887,30.3804271 5.1856695,28.1729746 6.5330595,26.8248421 L11.691207,21.6642196 C13.038597,20.3163346 15.2465445,20.3190571 16.5914595,21.6642196 Z" id="Stroke-3"></path>
            </g>
        </g>
    </g>
</svg>