<?xml version="1.0" encoding="UTF-8"?>
<svg width="65px" height="63px" viewBox="0 0 65 63" version="1.1" xmlns="http://www.w3.org/2000/svg" xmlns:xlink="http://www.w3.org/1999/xlink">
    <!-- Generator: sketchtool 64 (101010) - https://sketch.com -->
    <title>29C2FC96-384F-47F4-9583-26182D59D43C</title>
    <desc>Created with sketchtool.</desc>
    <g id="About-Us-Page" stroke="none" stroke-width="1" fill="none" fill-rule="evenodd" stroke-linecap="round" stroke-linejoin="round">
        <g id="about-us--copy" transform="translate(-861.000000, -3256.000000)" stroke="#F15B27" stroke-width="2.535">
            <g id="Group-29" transform="translate(863.000000, 3257.625000)">
                <path d="M61.399208,6.401642 C61.399208,9.811542 58.634888,12.575862 55.224728,12.575862 C51.814828,12.575862 49.050508,9.811542 49.050508,6.401642 C49.050508,2.991742 51.814828,0.227422 55.224728,0.227422 C58.634888,0.227422 61.399208,2.991742 61.399208,6.401642 Z" id="Stroke-1"></path>
                <path d="M12.57594,7.037186 C12.57594,10.447346 9.81188,13.211406 6.40172,13.211406 C2.99182,13.211406 0.2275,10.447346 0.2275,7.037186 C0.2275,3.627286 2.99182,0.862966 6.40172,0.862966 C9.81188,0.862966 12.57594,3.627286 12.57594,7.037186 Z" id="Stroke-3"></path>
                <path d="M58.383676,36.962068 C58.383676,40.371968 55.619356,43.136288 52.209196,43.136288 C48.799296,43.136288 46.034976,40.371968 46.034976,36.962068 C46.034976,33.552168 48.799296,30.787848 52.209196,30.787848 C55.619356,30.787848 58.383676,33.552168 58.383676,36.962068 Z" id="Stroke-5"></path>
                <line x1="41.639598" y1="32.478836" x2="46.467538" y2="34.526856" id="Stroke-7"></line>
                <line x1="49.980528" y1="10.189426" x2="39.718848" y2="17.600206" id="Stroke-9"></line>
                <line x1="15.861248" y1="15.766218" x2="11.108188" y2="11.380018" id="Stroke-11"></line>
                <path d="M12.79317,47.000746 C11.65645,50.215646 8.12903,51.900706 4.91387,50.763986 C1.69897,49.627266 0.01417,46.099586 1.15089,42.884686 C2.28761,39.669786 5.81529,37.984986 9.03019,39.121446 C12.24509,40.258166 13.92989,43.785846 12.79317,47.000746 Z" id="Stroke-13"></path>
                <line x1="11.61264" y1="40.754662" x2="18.32012" y2="34.701082" id="Stroke-15"></line>
                <line x1="30.28324" y1="38.432186" x2="33.24828" y2="50.964186" id="Stroke-17"></line>
                <path d="M38.60896,56.283318 C38.02136,58.637618 35.63664,60.069698 33.28234,59.482098 C30.92804,58.894238 29.49596,56.509518 30.08356,54.155218 C30.67142,51.801178 33.05614,50.369098 35.41044,50.956698 C37.76448,51.544298 39.19656,53.929018 38.60896,56.283318 Z" id="Stroke-19"></path>
                <path d="M32.167226,9.230156 C32.167226,12.797616 29.699826,15.282176 26.656266,15.282176 C23.612446,15.282176 21.145046,12.797616 21.145046,9.230156 C21.145046,2.265796 32.167226,2.478216 32.167226,9.230156 Z" id="Stroke-21"></path>
                <path d="M37.985376,30.895488 L15.326376,30.895488 L15.326376,24.576708 C15.326376,21.520148 17.833556,19.004908 20.898436,19.004908 L32.413316,19.004908 C35.478196,19.004908 37.985376,21.511828 37.985376,24.576708 L37.985376,30.895488 Z" id="Stroke-23"></path>
                <line x1="32.364384" y1="30.895488" x2="32.364384" y2="24.230908" id="Stroke-25"></line>
                <line x1="20.946848" y1="24.230934" x2="20.946848" y2="30.895514" id="Stroke-27"></line>
            </g>
        </g>
    </g>
</svg>