<?xml version="1.0" encoding="UTF-8"?>
<svg width="62px" height="61px" viewBox="0 0 62 61" version="1.1" xmlns="http://www.w3.org/2000/svg" xmlns:xlink="http://www.w3.org/1999/xlink">
    <!-- Generator: sketchtool 64 (101010) - https://sketch.com -->
    <title>463F67EA-6FA7-49CC-A72D-BF8B05800A25</title>
    <desc>Created with sketchtool.</desc>
    <g id="About-Us-Page" stroke="none" stroke-width="1" fill="none" fill-rule="evenodd" stroke-linecap="round" stroke-linejoin="round">
        <g id="about-us--copy" transform="translate(-1100.000000, -3257.000000)" stroke="#0F677F" stroke-width="2.483712">
            <g id="Group-13" transform="translate(1102.000000, 3258.625000)">
                <path d="M26.8358182,49.7846272 C28.881431,47.121536 29.6610406,45.8779552 32.9502342,44.482592 L32.960583,44.4136 C38.4506214,42.4231808 44.2821702,42.6525792 48.8822118,42.8216096" id="Stroke-1"></path>
                <path d="M32.9980112,43.2071024 C33.8586864,37.4272976 40.0231216,36.345848 47.2569328,38.4966736 C49.8907024,39.278008 52.9591216,41.4892016 58.345672,42.4274928 C51.6413744,45.5942256 49.661304,50.7686256 44.6611088,52.0984464 C37.829176,53.9146608 32.8307056,50.2856816 32.9497168,44.4817296" id="Stroke-3"></path>
                <path d="M27.1457648,55.4761222 C26.8422,51.691911 24.832808,47.6489798 21.529816,46.1311558 C18.39068,49.320311 12.6505456,53.201111 7.1380848,47.0125286 C3.203816,42.593591 4.5715824,37.8883366 0.1629936,30.6390022 C5.8996784,33.1365126 10.2203024,31.4720806 13.2300784,32.3844998 C22.6561104,35.245943 22.987272,41.5104166 21.529816,46.1311558 C17.217816,41.3810566 13.38876,38.9232166 8.0108336,36.8224102" id="Stroke-5"></path>
                <path d="M34.3926845,0.24198944 C38.3821469,0.82497184 41.1435517,4.53156704 40.5605693,8.52102944 L40.5502205,8.58484704 C44.4154973,8.08120544 48.0220541,10.7201494 48.6843773,14.595775 C49.3622237,18.571439 46.6887837,22.3435766 42.7148445,23.021423 L42.6527517,23.030047 C44.3258077,26.5520886 42.9304445,30.7968214 39.4480733,32.6233846 C36.4934909,34.1739798 31.1983549,31.3936022 29.0061341,29.0892694" id="Stroke-7"></path>
                <path d="M27.7841133,57.9958826 C25.3590445,50.4102122 25.9161549,33.9556202 29.0069965,29.0882346 C26.2645645,30.5922602 21.8025069,31.7099306 19.4481549,29.4107722 C16.5642893,26.5941738 16.5073709,21.9717098 19.3256941,19.0861194 L19.3705389,19.0412746 C15.9468109,17.175041 14.5807693,12.923409 16.3245421,9.39791776 C18.1114349,5.78446176 22.4907021,4.30285856 26.1058829,6.09147616 L26.1610765,6.11907296 C26.8785933,2.28656736 30.5006733,-0.32650464 34.3935469,0.24267936" id="Stroke-9"></path>
                <path d="M32.7310122,10.4426291 C36.7204746,11.0256115 39.4818794,14.7322067 38.898897,18.7233939 C38.3159146,22.7128563 34.6075946,25.4742611 30.6181322,24.8912787 C26.6286698,24.3082963 23.867265,20.6017011 24.4502474,16.6105139 C25.0349546,12.6227763 28.7415498,9.85964672 32.7310122,10.4426291 Z" id="Stroke-11"></path>
            </g>
        </g>
    </g>
</svg>