<?xml version="1.0" encoding="UTF-8"?>
<svg width="53px" height="59px" viewBox="0 0 53 59" version="1.1" xmlns="http://www.w3.org/2000/svg" xmlns:xlink="http://www.w3.org/1999/xlink">
    <!-- Generator: sketchtool 64 (101010) - https://sketch.com -->
    <title>8E63BFD2-C9D2-4BCC-8865-7431F9BA3B3B</title>
    <desc>Created with sketchtool.</desc>
    <g id="Homepage" stroke="none" stroke-width="1" fill="none" fill-rule="evenodd" stroke-linecap="round" stroke-linejoin="round">
        <g transform="translate(-799.000000, -2620.000000)" id="Group-17" stroke="#0F677F" stroke-width="2.32092432">
            <g transform="translate(800.000000, 2621.000000)">
                <path d="M25.3217421,55.9448879 C17.4386582,55.9448879 11.0496693,49.555899 11.0496693,41.6728151 C11.0496693,33.7897312 17.4386582,27.3991305 25.3217421,27.3991305 C33.204826,27.3991305 39.5938149,33.7897312 39.5938149,41.6728151 C39.5938149,49.555899 33.204826,55.9448879 25.3217421,55.9448879" id="Stroke-1"></path>
                <polyline id="Stroke-3" points="24.1570894 27.4511902 8.40381557 0.207729212 42.240958 0.207729212 26.6085657 27.4511902"></polyline>
                <line x1="14.9209388" y1="11.5839654" x2="35.7544581" y2="11.5839654" id="Stroke-5"></line>
                <polyline id="Stroke-7" points="8.20170174 0.207245686 0.207406861 9.89871647 13.6590974 33.2481822"></polyline>
                <polyline id="Stroke-9" points="42.4419436 0.207245686 50.4378503 9.89871647 36.984548 33.2481822"></polyline>
                <path d="M25.3217421,31.7418378 C30.8065376,31.7418378 35.2533641,36.1870526 35.2533641,41.6718481 C35.2533641,47.1566435 30.8065376,51.6034701 25.3217421,51.6034701 C19.8369466,51.6034701 15.3901201,47.1566435 15.3901201,41.6718481 C15.3901201,36.1870526 19.8369466,31.7418378 25.3217421,31.7418378 Z" id="Stroke-11"></path>
                <polyline id="Stroke-13" points="22.2777854 39.6275006 25.7994657 36.1058203 25.7994657 46.0003719"></polyline>
                <line x1="22.3690106" y1="46.5986546" x2="28.5017308" y2="46.5986546" id="Stroke-15"></line>
            </g>
        </g>
    </g>
</svg>