<?xml version="1.0" encoding="UTF-8"?>
<svg width="54px" height="49px" viewBox="0 0 54 49" version="1.1" xmlns="http://www.w3.org/2000/svg" xmlns:xlink="http://www.w3.org/1999/xlink">
    <!-- Generator: sketchtool 64 (101010) - https://sketch.com -->
    <title>645DD2FB-A163-4AE7-8AEC-CC4F082285C1</title>
    <desc>Created with sketchtool.</desc>
    <g id="Homepage" stroke="none" stroke-width="1" fill="none" fill-rule="evenodd">
        <g transform="translate(-793.000000, -2751.000000)" id="Group-5" stroke="#F15B27" stroke-width="2.10585375">
            <g transform="translate(794.000000, 2752.333333)">
                <path d="M27.5804422,37.7536812 L30.8338242,41.0336294 C33.4664654,43.6874371 38.5777504,39.8997082 35.2936985,36.4515077 M29.5592967,30.3602987 L36.0718924,37.051082 C38.6794793,39.729296 43.9581527,35.7692111 40.6475347,32.3523284 L34.2820247,25.7842245 M32.5696957,14.6620769 L45.2095698,27.9125407 C47.7897266,30.6173208 43.9583687,35.7672672 40.6473187,32.3525443 L34.7224182,26.2436246 M6.72536253,25.53217 L3.45966933,22.2710125 C-7.42403081,11.4035112 11.4260601,-7.25543292 22.4726129,3.49738031 L24.6735,5.68725222 M44.9348369,27.0771107 L48.2057137,23.8109855 C53.8433542,18.1815525 51.0560678,10.5756407 46.5143352,5.69308382 C45.0171272,4.08291564 43.3071739,2.68786853 41.5365289,1.69584942 C39.2298091,0.40188329 31.9971194,-1.49144122 27.2676959,3.11206307 L17.4516096,12.8797687 C14.8021216,15.5169456 21.4881533,18.0677284 24.8722062,14.732704 L27.3450185,12.2959613 C30.9981888,8.98318332 35.588734,15.6216983 41.3103926,11.1065319" id="Stroke-1" stroke-linecap="round" stroke-linejoin="round"></path>
                <path d="M28.1424567,37.9968803 L28.4897606,38.3441842 C29.664503,39.5189266 29.6612632,41.4485366 28.4897606,42.6200393 L25.4711542,45.6386456 C24.2998676,46.8101483 22.3676658,46.8110122 21.1952992,45.6386456 L20.8479953,45.2911258 C19.6756287,44.1191912 19.671957,42.1908771 20.8477793,41.0152707 L23.8663857,37.9966644 C25.042208,36.820842 26.9674983,36.8219219 28.1424567,37.9968803 Z M24.9817322,31.6041563 L25.3292521,31.9516762 C26.5050744,33.1277145 26.5033466,35.0538687 25.3294681,36.2277472 L20.4134335,41.1435658 C19.239555,42.3176603 17.3114569,42.3176603 16.1373625,41.1433498 L15.7898426,40.7960459 C14.6159641,39.6219515 14.6138043,37.6960132 15.7898426,36.5201909 L20.7058772,31.6041563 C21.8816995,30.428334 23.8059099,30.428334 24.9817322,31.6041563 Z M22.0512478,24.9038696 L22.3987676,25.2513895 C23.5748059,26.4274278 23.5707022,28.355094 22.3983357,29.5274605 L15.2280656,36.6979466 C14.055699,37.8700971 12.1241452,37.8700971 10.9522106,36.6979466 L10.6046907,36.3506427 C9.43254012,35.1782761 9.42886837,33.250394 10.6046907,32.0745716 L17.7751767,24.9043016 C18.9512151,23.7282633 20.8752094,23.7278313 22.0512478,24.9038696 Z M14.4788137,22.8433727 L14.8263335,23.1908926 C16.000212,24.3647711 15.9976202,26.295461 14.8261175,27.4669636 L10.3247742,31.9704669 C9.15370348,33.1417535 7.22236561,33.1436974 6.04891911,31.9704669 L5.70139924,31.622947 C4.52816872,30.4497165 4.52536092,28.5233463 5.70118326,27.346876 L10.2025266,22.8433727 C11.378349,21.6671184 13.3051512,21.6694943 14.4788137,22.8433727 Z" id="Stroke-3"></path>
            </g>
        </g>
    </g>
</svg>