<?xml version="1.0" encoding="UTF-8"?>
<svg width="69px" height="68px" viewBox="0 0 69 68" version="1.1" xmlns="http://www.w3.org/2000/svg" xmlns:xlink="http://www.w3.org/1999/xlink">
    <!-- Generator: sketchtool 64 (101010) - https://sketch.com -->
    <title>455B971B-7C40-451A-A754-196928942457</title>
    <desc>Created with sketchtool.</desc>
    <g id="Homepage" stroke="none" stroke-width="1" fill="none" fill-rule="evenodd" stroke-linecap="round" stroke-linejoin="round">
        <g transform="translate(-785.000000, -2888.000000)" id="Group-15" stroke="#7DD2E3" stroke-width="2.73">
            <g transform="translate(787.000000, 2889.666667)">
                <polygon id="Stroke-1" points="32.758712 33.893244 37.421552 44.941204 48.991992 45.686844 39.926432 53.536364 42.791392 64.770244 32.525192 58.573564 22.726312 64.770244 25.447072 53.091724 16.525712 45.686844 28.473312 44.666244"></polygon>
                <path d="M26.823188,5.784548 C26.823188,9.626148 29.480388,12.302108 32.758068,12.302108 C36.036028,12.302108 38.693228,9.626148 38.693228,5.784548 C38.693228,-1.715532 26.823188,-1.486772 26.823188,5.784548 Z" id="Stroke-3"></path>
                <path d="M20.557936,29.657152 L44.959096,29.657152 L44.959096,22.309952 C44.959096,19.021352 42.259336,16.309272 38.958696,16.309272 L26.558616,16.309272 C23.257976,16.309272 20.557936,19.009312 20.557936,22.309952 L20.557936,29.657152 Z" id="Stroke-5"></path>
                <line x1="26.611004" y1="29.361976" x2="26.611004" y2="22.481536" id="Stroke-7"></line>
                <line x1="38.906672" y1="22.48148" x2="38.906672" y2="29.36192" id="Stroke-9"></line>
                <polyline id="Stroke-11" points="19.273044 54.623772 13.780284 51.308012 5.490324 56.550452 7.792204 46.670652 0.245084 40.406212 10.352524 39.542972 13.977964 30.429252 17.922604 39.775372 23.952124 40.164012"></polyline>
                <polyline id="Stroke-13" points="46.24466 54.623772 51.73742 51.308012 60.02738 56.550452 57.7255 46.670652 65.27262 40.406212 55.16518 39.542972 51.53974 30.429252 47.5951 39.775372 41.56558 40.164012"></polyline>
            </g>
        </g>
    </g>
</svg>