<?xml version="1.0" encoding="UTF-8"?>
<svg width="57px" height="58px" viewBox="0 0 57 58" version="1.1" xmlns="http://www.w3.org/2000/svg" xmlns:xlink="http://www.w3.org/1999/xlink">
    <!-- Generator: sketchtool 64 (101010) - https://sketch.com -->
    <title>5D9837D7-8958-4852-AF39-AE9A49E0937E</title>
    <desc>Created with sketchtool.</desc>
    <g id="Homepage" stroke="none" stroke-width="1" fill="none" fill-rule="evenodd" stroke-linecap="round" stroke-linejoin="round">
        <g transform="translate(-791.000000, -3041.000000)" id="Group-13" stroke="#EA6872" stroke-width="2.376">
            <g transform="translate(793.000000, 3043.000000)">
                <path d="M28.51387,38.0974 L35.77717,34.23475 C37.48492,33.3256 40.82287,31.9462 40.84267,35.35675 L42.06862,34.51525 C45.50887,32.15905 48.13072,33.82885 46.84207,37.08595 C52.96027,32.63755 55.12342,38.269 52.39927,39.6517 L38.86102,48.20365 L33.12232,51.8287 C29.06167,54.39445 23.70247,54.4324 22.19437,53.53315 C13.62922,51.32545 11.15752,49.2217 3.68962,50.18035" id="Stroke-1"></path>
                <path d="M0.088495,34.937485 L8.940745,31.337185 C11.201245,30.419785 13.730695,30.655735 14.684395,31.361935 C16.281595,32.546635 17.882095,33.731335 19.480945,34.914385 C26.138695,39.849535 26.676595,38.615335 34.520695,39.085585 C36.259795,39.186235 37.401595,41.984635 34.520695,43.093435 C27.201295,46.441285 22.681945,44.939785 16.007695,41.524285" id="Stroke-3"></path>
                <line x1="26.82361" y1="4.620385" x2="26.82361" y2="7.687735" id="Stroke-5"></line>
                <line x1="26.82361" y1="21.065605" x2="26.82361" y2="24.132955" id="Stroke-7"></line>
                <path d="M26.82361,0.08767 C34.71556,0.08767 41.11261,6.48472 41.11261,14.37667 C41.11261,22.26697 34.71556,28.66402 26.82361,28.66402 C18.93331,28.66402 12.53626,22.26697 12.53626,14.37667 C12.53626,6.48472 18.93331,0.08767 26.82361,0.08767 Z" id="Stroke-9"></path>
                <path d="M31.26937,9.28675 C29.85697,8.81815 28.58317,8.3743 27.30442,8.23075 C20.41402,7.45855 19.52962,14.4001 26.86387,14.377 C33.99187,14.3539 33.32032,21.30205 26.41342,20.5216 C25.13467,20.3764 23.86087,19.93255 22.45672,19.46725" id="Stroke-11"></path>
            </g>
        </g>
    </g>
</svg>