<?xml version="1.0" encoding="UTF-8"?>
<svg width="35px" height="35px" viewBox="0 0 35 35" version="1.1" xmlns="http://www.w3.org/2000/svg" xmlns:xlink="http://www.w3.org/1999/xlink">
    <!-- Generator: sketchtool 64 (101010) - https://sketch.com -->
    <title>EAF20328-3B36-468D-84FC-AA9F6F72F313</title>
    <desc>Created with sketchtool.</desc>
    <defs>
        <polygon id="path-1" points="3.09734513e-05 0.249026549 34.7509735 0.249026549 34.7509735 35 3.09734513e-05 35"></polygon>
    </defs>
    <g id="Homepage" stroke="none" stroke-width="1" fill="none" fill-rule="evenodd">
        <g transform="translate(-843.000000, -6689.000000)" id="Group-6">
            <g transform="translate(843.000000, 6688.778761)">
                <g id="Group-3" transform="translate(0.000000, 0.060708)">
                    <mask id="mask-2" fill="white">
                        <use xlink:href="#path-1"></use>
                    </mask>
                    <g id="Clip-2"></g>
                    <path d="M17.3755177,0.249026549 C26.9717124,0.249026549 34.7510044,8.02831858 34.7510044,17.6245133 C34.7510044,27.220708 26.9717124,35 17.3755177,35 C7.77932301,35 3.09734513e-05,27.220708 3.09734513e-05,17.6245133 C3.09734513e-05,8.02831858 7.77932301,0.249026549 17.3755177,0.249026549" id="Fill-1" fill="#0F677F" mask="url(#mask-2)"></path>
                </g>
                <path d="M21.7437345,18.3653673 L18.643292,18.3653673 L18.643292,29.7239513 L13.9458584,29.7239513 L13.9458584,18.3653673 L11.7117434,18.3653673 L11.7117434,14.3735088 L13.9458584,14.3735088 L13.9458584,11.790323 C13.9458584,9.94306637 14.8233363,7.05045575 18.6851062,7.05045575 L22.164354,7.06501327 L22.164354,10.939792 L19.6400177,10.939792 C19.2259027,10.939792 18.6436018,11.1466947 18.6436018,12.0278894 L18.6436018,14.3772257 L22.1541327,14.3772257 L21.7437345,18.3653673 Z" id="Fill-4" fill="#FFFFFF"></path>
            </g>
        </g>
    </g>
</svg>