<?xml version="1.0" encoding="UTF-8"?>
<svg width="36px" height="35px" viewBox="0 0 36 35" version="1.1" xmlns="http://www.w3.org/2000/svg" xmlns:xlink="http://www.w3.org/1999/xlink">
    <!-- Generator: sketchtool 64 (101010) - https://sketch.com -->
    <title>FCD15C00-43B3-40C2-A680-7238ED04808E</title>
    <desc>Created with sketchtool.</desc>
    <defs>
        <polygon id="path-1" points="3.09734513e-05 0.249026549 34.7509735 0.249026549 34.7509735 35 3.09734513e-05 35"></polygon>
        <polygon id="path-3" points="0 35.060708 34.7509735 35.060708 34.7509735 0.309734513 0 0.309734513"></polygon>
    </defs>
    <g id="Homepage" stroke="none" stroke-width="1" fill="none" fill-rule="evenodd">
        <g transform="translate(-959.000000, -6689.000000)" id="Group-6">
            <g transform="translate(959.673333, 6688.778761)">
                <g id="Group-3" transform="translate(0.000000, 0.060708)">
                    <mask id="mask-2" fill="white">
                        <use xlink:href="#path-1"></use>
                    </mask>
                    <g id="Clip-2"></g>
                    <path d="M17.3755177,0.249026549 C26.9717124,0.249026549 34.7510044,8.02831858 34.7510044,17.6245133 C34.7510044,27.220708 26.9717124,35 17.3755177,35 C7.77932301,35 3.09734513e-05,27.220708 3.09734513e-05,17.6245133 C3.09734513e-05,8.02831858 7.77932301,0.249026549 17.3755177,0.249026549" id="Fill-1" fill="#0F677F" mask="url(#mask-2)"></path>
                </g>
                <mask id="mask-4" fill="white">
                    <use xlink:href="#path-3"></use>
                </mask>
                <g id="Clip-5"></g>
                <path d="M8.63075221,26.2469027 L12.7827434,26.2469027 L12.7827434,13.7553097 L8.63075221,13.7553097 L8.63075221,26.2469027 Z M10.7341593,7.7340708 C9.31340708,7.7340708 8.38389381,8.66668142 8.38389381,9.89199115 C8.38389381,11.0912832 9.28646018,12.0508407 10.679646,12.0508407 L10.7065929,12.0508407 C12.1552212,12.0508407 13.0559292,11.0912832 13.0559292,9.89199115 C13.0283628,8.66668142 12.1552212,7.7340708 10.7341593,7.7340708 L10.7341593,7.7340708 Z M27.7571681,19.0833628 L27.7571681,26.2469027 L23.6039381,26.2469027 L23.6039381,19.5634513 C23.6039381,17.8853097 23.004292,16.739292 21.500531,16.739292 C20.3529646,16.739292 19.6712389,17.5108407 19.370177,18.2579204 C19.2608407,18.5249115 19.2326549,18.8956637 19.2326549,19.2701327 L19.2326549,26.2465929 L15.079115,26.2465929 C15.079115,26.2465929 15.1348673,14.9270354 15.079115,13.7553097 L19.2329646,13.7553097 L19.2329646,15.5254425 C19.2246018,15.5393805 19.2128319,15.5530088 19.2053982,15.5663274 L19.2329646,15.5663274 L19.2329646,15.5254425 C19.7849115,14.6761504 20.7692478,13.4619912 22.9761062,13.4619912 C25.7085841,13.4619912 27.7571681,15.2473009 27.7571681,19.0833628 L27.7571681,19.0833628 Z" id="Fill-4" fill="#F1F2F2" mask="url(#mask-4)"></path>
            </g>
        </g>
    </g>
</svg>