<?xml version="1.0" encoding="UTF-8"?>
<svg width="619px" height="360px" viewBox="0 0 619 360" version="1.1" xmlns="http://www.w3.org/2000/svg" xmlns:xlink="http://www.w3.org/1999/xlink">
    <!-- Generator: sketchtool 64 (101010) - https://sketch.com -->
    <title>E4DBCC4F-4378-4B27-95E0-5EF95D08EB48</title>
    <desc>Created with sketchtool.</desc>
    <defs>
        <polygon id="path-1" points="0.0374279026 8.05701425e-05 103.070161 8.05701425e-05 103.070161 135.969447 0.0374279026 135.969447"></polygon>
    </defs>
    <g id="Homepage" stroke="none" stroke-width="1" fill="none" fill-rule="evenodd">
        <g transform="translate(-667.000000, -4209.000000)" id="Group-256">
            <g transform="translate(667.550265, 4209.000000)">
                <path d="M481.168973,205.738679 L477.378417,109.876592 L473.396909,107.510515 C462.360142,112.583212 445.220993,174.451681 442.926087,202.35339 L481.168973,205.738679 Z" id="Fill-1" fill="#381423"></path>
                <path d="M499.951646,331.824936 C499.951646,333.094453 495.599784,334.123602 490.231127,334.123602 C484.86247,334.123602 480.510608,333.094453 480.510608,331.824936 C480.510608,330.555419 484.86247,329.52627 490.231127,329.52627 C495.599784,329.52627 499.951646,330.555419 499.951646,331.824936" id="Fill-3" fill="#EBEBEB"></path>
                <path d="M469.603559,333.033488 C469.603559,334.080363 466.333754,334.929304 462.300144,334.929304 C458.266534,334.929304 454.996729,334.080363 454.996729,333.033488 C454.996729,331.986614 458.266534,331.137673 462.300144,331.137673 C466.333754,331.137673 469.603559,331.986614 469.603559,333.033488" id="Fill-5" fill="#EBEBEB"></path>
                <path d="M470.199161,122.370094 C469.726214,122.138052 468.51605,122.098035 468.846656,121.129045 C469.237422,120.163546 469.728362,118.133984 469.768916,116.074611 C469.67438,113.112316 471.776992,111.68327 471.972778,111.131096 C478.771824,110.411605 481.944676,115.691097 484.09751,121.871902 C483.951141,125.605791 484.201446,129.698217 485.854476,134.018656 C480.921972,137.275301 474.566599,139.613178 473.705573,137.782088 C476.400913,133.143396 477.697555,130.714743 476.74253,127.169657 L473.361539,128.255474 C471.888179,128.427894 471.189636,127.248347 470.898241,126.015087 L470.199161,122.370094 Z" id="Fill-7" fill="#DB8135"></path>
                <path d="M484.09751,121.871902 C484.062596,121.792137 484.026608,121.714253 483.991158,121.634757 C483.11724,120.92762 481.850946,120.663349 480.763249,120.401228 C481.239419,125.057376 476.74253,127.169657 476.74253,127.169657 C478.216964,126.962055 480.997977,126.040064 482.019338,127.928628 C482.83417,129.872517 484.67305,131.952032 484.756305,131.866359 C483.436566,127.784407 483.958929,125.408394 484.09751,121.871902" id="Fill-9" fill="#B5631F"></path>
                <path d="M478.993956,117.529466 C481.189492,118.09292 480.731854,118.729961 480.973027,120.973571 C481.009552,124.269696 483.763977,129.675147 485.093653,132.513633 C485.542965,133.087561 488.106707,137.88793 489.274706,139.158253 C489.473714,132.948174 489.695282,112.066542 487.075141,108.397378 C479.263328,104.043636 472.761049,105.724598 471.442653,110.392563 C472.348262,113.581798 475.994061,115.068854 478.993956,117.529466" id="Fill-11" fill="#381423"></path>
                <path d="M514.463967,163.485252 L500.131882,142.60926 C496.136408,137.67971 491.263526,136.391393 488.191386,137.364949 C487.016674,135.390712 485.188,132.801456 484.756413,131.866574 L477.350674,132.206849 C475.728797,134.472212 473.957865,137.041863 472.179145,139.711152 C465.896285,139.449299 459.022309,147.919101 439.196683,158.677632 C435.199329,161.780119 438.893471,167.985632 443.477106,166.309773 C453.296458,161.915477 461.261353,156.538226 465.974707,153.24237 C464.309859,152.912032 478.789119,159.118888 495.424974,152.733972 C497.43305,155.939858 501.110809,161.260173 508.46176,169.853248 C512.50289,172.589678 517.590357,167.464612 514.463967,163.485252" id="Fill-13" fill="#DB8135"></path>
                <path d="M481.360972,116.698708 C482.270878,116.905773 482.75967,118.151119 482.45028,119.481869 C482.142234,120.812619 481.154981,121.724942 480.245344,121.518951 C479.33517,121.313497 478.847989,120.067345 479.155767,118.736058 C479.464082,117.405308 480.451604,116.493254 481.360972,116.698708" id="Fill-15" fill="#DB8135"></path>
                <path d="M479.869162,122.063766 C479.920459,122.518182 480.330292,122.843953 480.783365,122.791583 C481.238049,122.738944 481.563284,122.328036 481.510913,121.87362 C481.459617,121.418936 481.049783,121.093164 480.596711,121.146072 C480.142832,121.198443 479.817329,121.60935 479.869162,122.063766" id="Fill-17" fill="#FFFFFF"></path>
                <path d="M481.869262,223.716429 L461.978911,223.716429 L453.320038,261.534711 C453.29721,262.087959 453.445727,263.809206 453.453784,264.183589 L458.587445,326.769938 C458.752883,329.873232 462.486772,327.664267 462.320797,324.563928 L468.870075,262.393857 L481.869262,223.716429 Z" id="Fill-19" fill="#C9C9C9"></path>
                <path d="M503.265442,223.716429 L484.28634,223.716429 L484.642728,266.710269 C484.619094,267.26298 484.767612,268.984227 484.775938,269.358341 L486.474088,327.915914 C486.639525,331.019208 491.158973,330.67759 490.992998,327.576983 L498.788965,267.224306 L503.265442,223.716429 Z" id="Fill-21" fill="#C9C9C9"></path>
                <path d="M464.534596,328.197695 C465.971699,326.610195 464.347405,323.600363 462.523028,323.95702 L458.772488,325.637713 C458.772488,325.637713 454.913447,330.613457 454.791786,331.361685 C454.62608,331.985566 455.069753,332.730034 455.238682,332.92958 L464.534596,328.197695 Z" id="Fill-23" fill="#E15959"></path>
                <path d="M490.886189,331.948987 C492.886477,331.411853 492.512363,327.651913 490.724243,327.383346 L486.569241,327.383346 C486.569241,327.383346 481.215624,329.871889 480.767385,330.483685 C480.336603,330.964689 480.394345,331.948987 480.454236,331.948987 L490.886189,331.948987 Z" id="Fill-25" fill="#E15959"></path>
                <path d="M510.565285,230.162041 C505.743968,198.192345 498.933105,166.55433 495.566079,152.635569 L466.25493,152.556879 C462.476459,158.188732 460.383246,165.739766 460.180478,170.549266 C460.408492,178.545047 456.458943,222.026068 455.741869,230.162041 L510.565285,230.162041 Z" id="Fill-27" fill="#F0BC5C"></path>
                <line x1="472.128977" y1="139.581863" x2="466.647521" y2="152.708083" id="Stroke-29" stroke="#F0B852" stroke-width="3" stroke-linecap="round"></line>
                <line x1="488.314874" y1="137.774944" x2="488.932847" y2="153.351838" id="Stroke-31" stroke="#F0B852" stroke-width="3" stroke-linecap="round"></line>
                <path d="M495.566186,152.635704 L490.104605,152.620932 C493.922287,164.956221 495.465205,175.839636 489.747142,182.088656 C504.54358,201.741057 489.027114,219.690473 456.547409,220.884254 C456.178667,225.188043 455.887808,228.506727 455.741976,230.162175 L510.565393,230.162175 C505.743807,198.192211 498.933213,166.554196 495.566186,152.635704" id="Fill-33" fill="#EAA336"></path>
                <path d="M479.400754,189.290016 C490.661774,180.573669 504.156468,166.872448 508.289447,163.911227 C513.66831,159.878154 518.981105,167.185597 513.58586,171.135951 L482.043455,190.771969 C480.684237,191.691812 478.046907,190.243429 479.400754,189.290016" id="Fill-35" fill="#DB8135"></path>
                <path d="M467.485692,192.252365 C467.292056,192.090956 467.672884,191.748533 468.098563,191.617472 C469.158597,191.334403 470.697487,191.369048 471.93585,190.995471 C471.93585,190.995471 473.883499,192.068934 473.138225,192.208589 C473.138225,192.208589 467.454807,192.249142 467.485692,192.252365" id="Fill-37" fill="#DB8135"></path>
                <path d="M480.847445,188.122904 C480.282917,187.867228 479.678104,187.711459 478.960761,187.820497 C476.021293,188.515012 473.966755,188.537034 472.251685,188.668632 C471.774978,188.687163 471.582416,189.421963 472.396443,189.455265 C473.433917,189.459025 474.488044,189.635742 475.513164,189.664747 C475.526056,189.876647 474.675772,190.216653 473.355764,190.912779 L468.708479,190.562567 C468.233652,190.493546 467.851212,190.701685 467.7317,191.073114 L473.248875,192.332156 C473.609292,192.363847 475.027058,192.693648 475.881101,192.507799 C477.829287,192.174239 479.762971,191.808182 481.52316,191.065862 C481.987781,191.156638 482.773071,188.977484 480.847445,188.122904" id="Fill-39" fill="#DB8135"></path>
                <line x1="482.316695" y1="186.385596" x2="484.644367" y2="189.966671" id="Stroke-41" stroke="#FFFFFF" stroke-width="3" stroke-linecap="round"></line>
                <line x1="484.196665" y1="185.042761" x2="486.524337" y2="188.623835" id="Stroke-43" stroke="#FFFFFF" stroke-width="3" stroke-linecap="round"></line>
                <path d="M268.895519,216.465116 C268.895519,217.948413 267.693144,219.150788 266.209847,219.150788 L231.027552,219.150788 C229.544256,219.150788 228.34188,217.948413 228.34188,216.465116 L223.507672,197.665416 C223.507672,196.18212 224.710047,194.979745 226.193343,194.979745 L261.375639,194.979745 C262.858935,194.979745 264.06131,196.18212 264.06131,197.665416 L268.895519,216.465116 Z" id="Fill-45" fill="#B5B5B5"></path>
                <path d="M271.242178,339.168314 C271.177185,340.152881 275.390197,341.154636 280.651428,341.405478 C285.913732,341.656588 290.232023,341.061981 290.297017,340.077414 C290.36201,339.093383 286.149266,338.091628 280.88723,337.841055 C275.625194,337.589945 271.306903,338.184284 271.242178,339.168314" id="Fill-47" fill="#EBEBEB"></path>
                <path d="M234.209428,331.816288 C234.209428,333.772263 236.378913,335.440333 239.054111,335.440333 L299.517974,335.440333 C302.193708,335.440333 304.362925,333.772263 304.362925,331.816288 L290.616316,279.447844 C290.616316,277.49187 288.447368,276.086995 285.771633,276.086995 L251.8841,276.086995 C249.208634,276.086995 247.039686,277.49187 247.039686,279.447844 L234.209428,331.816288 Z" id="Stroke-49" stroke="#C1C1C1" stroke-width="4"></path>
                <path d="M305.853903,272.867358 C304.069005,280.070866 288.526756,321.78928 283.680462,331.461457 C282.771094,331.122526 285.382104,334.809415 287.139607,334.097981 L321.14343,284.075202 L305.853903,272.867358 Z" id="Fill-51" fill="#EAA336"></path>
                <path d="M295.453506,220.281187 C296.87718,221.919178 296.655344,224.440755 294.959342,225.91492 C293.263341,227.388279 290.735318,227.255607 289.312181,225.618422 L260.724552,196.953713 C258.352835,194.224534 258.658733,190.07544 261.406981,187.68761 C264.156034,185.298705 268.306739,185.575061 270.677918,188.303971 L295.453506,220.281187 Z" id="Fill-53" fill="#7D3D23"></path>
                <path d="M317.972995,337.556911 C317.908002,338.541478 322.120746,339.543233 327.381976,339.794075 C332.644549,340.045185 336.962572,339.450578 337.027565,338.466011 C337.092558,337.481981 332.880083,336.480225 327.617778,336.229652 C322.356011,335.978542 318.037451,336.572881 317.972995,337.556911" id="Fill-55" fill="#EBEBEB"></path>
                <path d="M330.479468,333.905553 L327.343947,273.795661 C327.419683,266.177485 321.342546,263.27508 310.35251,260.381806 C309.621738,259.966064 282.530297,255.061491 275.18418,253.062546 C270.328754,251.423212 267.455086,247.081824 268.504378,240.90478 L235.535075,240.90478 C226.684445,253.796003 229.32446,266.678631 242.40556,275.273048 L307.089956,276.003014 C309.370628,276.346243 322.760312,322.650978 325.960826,333.829548 C325.018693,334.084418 329.606894,335.460288 330.479468,333.905553" id="Fill-57" fill="#F0BC5C"></path>
                <path d="M264.904369,184.731438 C264.904369,177.949849 269.047555,172.433748 274.203507,172.278248 C274.186318,172.488267 274.1036,172.714938 273.919094,172.966317 C273.564048,173.441412 273.582579,174.016683 273.821604,174.656678 C274.116759,175.204824 274.103063,175.803729 273.721697,176.457421 C273.345435,176.984618 273.297093,177.564186 273.620179,178.200153 C273.902174,178.794492 273.922854,179.41542 273.501472,180.071261 C273.149112,180.638206 273.146426,181.19602 273.379543,181.750074 C273.697795,182.409406 273.760371,183.08727 273.206854,183.795213 C272.776609,184.222234 272.766941,184.751849 273.053771,185.356393 C273.65563,186.341498 273.170866,186.799136 272.82898,187.336539 L265.005082,186.544266 C264.938746,185.952612 264.904369,185.347531 264.904369,184.731438" id="Fill-59" fill="#221726"></path>
                <path d="M269.70122,239.944545 C266.171174,219.930116 282.727264,212.877274 278.832503,204.021273 C278.656592,202.674946 270.420712,187.024464 269.098824,183.094521 L253.379858,181.899666 C245.795253,190.837312 241.837648,195.822186 240.502332,209.115186 L234.245792,239.858603 L269.70122,239.944545 Z" id="Fill-61" fill="#E16868"></path>
                <path d="M258.36159,240.099025 L251.170168,240.099025 C243.134639,224.990512 243.958066,214.205392 237.652378,223.537563 C239.558131,211.405311 241.017524,201.964371 244.455989,192.920909 L258.391401,239.472458" id="Fill-63" fill="#C95252"></path>
                <path d="M304.831306,240.099025 L298.777266,235.070642 L290.745765,236.051718 L258.312255,230.588257 C255.748513,230.418254 253.531222,232.373691 253.359877,234.955964 C253.188262,237.537968 255.128123,239.768956 257.692133,239.939227 L290.665195,240.23116 C290.849164,240.243245 291.016213,240.193829 291.165805,240.099025 L304.831306,240.099025 Z" id="Fill-65" fill="#7D3D23"></path>
                <path d="M258.287117,207.602401 C263.026253,198.388399 258.199564,191.094384 269.098824,183.094575 L252.692057,182.536224 L246.201595,190.951238 L258.287117,207.602401 Z" id="Fill-67" fill="#C95252"></path>
                <path d="M261.195323,234.329021 C261.511158,236.475678 259.96448,238.479995 257.741818,238.807109 C255.518888,239.133418 253.461126,237.658448 253.14556,235.512328 L244.525092,195.957222 C243.999237,192.380176 246.493689,189.050749 250.096249,188.521672 C253.699077,187.991789 257.045961,190.462338 257.571815,194.039384 L261.195323,234.329021 Z" id="Fill-69" fill="#7D3D23"></path>
                <path d="M250.098558,188.259792 C246.151427,188.83936 243.418488,192.487039 243.994564,196.406508 L243.999936,196.430142 L258.280456,194.257702 C257.681552,190.364821 254.029576,187.681836 250.098558,188.259792" id="Fill-71" fill="#E16868"></path>
                <path d="M246.229634,185.930805 L259.098297,187.527436 L274.260255,161.824218 C272.30428,158.377965 268.582208,155.77528 262.500505,155.892107 C261.780746,155.930781 261.281211,156.168463 261.067431,156.661015 C260.80907,157.144167 260.488938,157.588646 259.615289,157.607445 C259.001076,157.61792 258.587214,157.933217 258.38176,158.564887 C258.205848,159.17722 257.76325,159.565031 257.078941,159.750343 C256.42874,159.818827 256.270822,160.241821 256.164201,160.706173 C256.083899,161.407133 255.684809,161.864235 254.99674,162.099768 C254.070183,162.436551 253.950939,163.005645 253.903134,163.60831 C253.876815,164.23246 253.574408,164.733606 252.961806,165.094829 C252.152614,165.501977 252.032295,166.072682 252.072043,166.689849 C252.117968,167.569406 251.758626,168.211013 251.103322,168.68208 C250.594924,168.939099 250.460103,169.463879 250.490451,170.107903 C250.571827,170.627312 250.447212,171.034191 250.029859,171.281273 C249.740881,171.488875 249.498633,171.7467 249.624054,172.397438 C249.686899,172.857225 249.581889,173.258196 249.227917,173.571614 C248.679772,174.012601 248.731605,174.536038 248.767056,175.063235 C248.855952,175.5198 248.786662,175.928827 248.430541,176.248691 C248.152843,176.482076 248.031988,176.770785 248.190174,177.155105 C248.422753,178.020965 248.08785,178.460341 247.761541,178.909117 C247.506133,179.198901 247.391724,179.562809 247.50855,180.047036 C247.673719,180.480235 247.55743,180.780224 247.306319,181.017638 C246.975176,181.307421 246.960136,181.704632 247.085826,182.150454 C247.188687,182.551156 247.216887,182.924196 246.90132,183.166443 C246.627113,183.521489 246.539292,183.9281 246.693181,184.399435 C246.928983,184.882319 246.44771,185.640752 246.229634,185.930805" id="Fill-73" fill="#221726"></path>
                <path d="M274.966586,171.176935 C275.399248,170.93415 276.724627,170.605155 276.364747,169.713512 C275.948199,168.828046 275.190303,167.177701 275.046351,165.247509 C274.982163,162.464079 274.046744,161.585596 273.834576,161.077736 C267.417701,160.753307 263.601631,165.516076 261.901869,171.426702 C262.231401,174.922103 262.655469,178.966456 260.72474,182.86068 C264.7844,185.527551 267.995389,184.562762 268.959545,183.323421 L269.075298,176.01732 L272.304012,176.861695 C274.222387,176.916483 274.85916,175.864774 274.85352,174.610028 L274.966586,171.176935 Z" id="Fill-75" fill="#7D3D23"></path>
                <path d="M261.942933,171.353168 C261.971401,171.276627 262.001749,171.201428 262.030486,171.125423 C262.813896,170.416943 263.988609,170.103257 264.996005,169.801656 C264.789208,174.194877 269.116899,175.944324 269.116899,175.944324 C267.603523,175.958558 264.793773,176.311723 264.109733,178.146574 C263.528017,180.060652 261.139112,182.25592 261.052365,182.16783 C262.650876,178.466706 262.255277,174.664333 261.942933,171.353168" id="Fill-77" fill="#592B17"></path>
                <path d="M274.260282,161.824299 C273.729862,161.742117 273.468009,162.012027 273.293977,162.386141 C273.165334,162.782546 272.861853,162.983166 272.352918,162.959263 C271.692243,162.909041 271.313026,163.231053 271.104349,163.770068 C270.995848,164.061463 270.803017,164.283837 270.339202,164.303173 C269.515506,164.250534 269.25231,164.719721 269.07989,165.25981 C268.861008,165.79023 268.540339,166.214297 267.849853,166.315547 C267.408865,166.312056 267.171452,166.563435 267.104579,167.030473 C266.967072,167.90627 266.381059,168.222105 265.755835,168.497924 C265.399983,168.916083 265.053532,169.349819 264.709497,169.80316 C264.582733,170.386488 264.469667,171.033735 264.363583,171.737918 C263.973623,172.256521 263.766826,172.832866 264.123752,173.511804 C264.302349,173.901763 264.387754,174.320996 263.967983,174.833154 C263.618577,175.25185 263.60864,175.781196 263.797174,176.381444 C264.042645,176.900584 264.001286,177.450072 263.619114,178.031789 C263.248223,178.496947 263.176247,179.027098 263.442934,179.627883 C263.673634,180.187846 263.662622,180.759625 263.243658,181.341341 C262.893715,181.844368 262.863904,182.357331 263.051632,182.878351 C263.312948,183.500084 263.338193,184.126383 262.795688,184.748384 C262.37914,185.118738 262.345301,185.605919 262.57976,186.17555 C263.086814,187.111507 262.618433,187.507374 262.278964,187.983813 C256.360282,187.864032 250.898163,187.291447 246.229661,185.930885 C261.28634,175.846995 259.577985,163.815993 269.675035,158.325943 C271.784898,158.814467 273.376696,159.905924 274.260282,161.824299" id="Fill-79" fill="#221726"></path>
                <path d="M264.20161,166.431622 C263.358309,166.672258 262.965395,167.866307 263.323127,169.099031 C263.681127,170.331754 264.654683,171.136918 265.496909,170.896282 C266.341016,170.656451 266.734466,169.462133 266.376466,168.22941 C266.019004,166.996687 265.045448,166.19206 264.20161,166.431622" id="Fill-81" fill="#7D3D23"></path>
                <path d="M261.628602,173.324935 C261.628602,174.741358 262.776458,175.889482 264.192881,175.889482 C265.609304,175.889482 266.75716,174.741358 266.75716,173.324935 C266.75716,171.90878 265.609304,170.760387 264.192881,170.760387 C262.776458,170.760387 261.628602,171.90878 261.628602,173.324935 Z" id="Stroke-83" stroke="#F0B445" stroke-width="2"></path>
                <path d="M288.798976,341.009717 L281.230754,334.935803 C279.996956,333.872814 281.54256,330.730579 283.581254,330.547684 L287.139768,333.112232 C287.139768,333.112232 290.096961,337.981623 290.166788,338.721794 C290.236347,339.463308 288.798976,341.009717 288.798976,341.009717" id="Fill-85" fill="#E15959"></path>
                <path d="M262.808042,243.104398 C258.4449,242.124666 254.311652,241.391477 250.473021,240.904834 L235.819998,240.904834 C235.603802,240.904834 235.391634,240.978958 235.180271,241.02354 C226.434919,253.872598 229.099374,266.702319 242.136966,275.268268 L287.512727,275.785797 C256.154291,270.380615 236.929449,252.920259 262.808042,243.104398" id="Fill-87" fill="#EAA336"></path>
                <path d="M300.947315,276.624156 C300.947315,277.722596 300.168471,278.504126 299.205926,278.504126 L237.983092,278.504126 C236.678392,278.504126 235.619432,277.722596 235.619432,276.624156 C235.619432,275.525179 236.678392,274.744186 237.983092,274.744186 L299.205926,274.744186 C300.168471,274.744186 300.947315,275.525179 300.947315,276.624156" id="Fill-89" fill="#C1C1C1"></path>
                <path d="M336.736519,338.41321 L327.032382,338.450273 C325.404597,338.399513 324.630049,334.984414 326.100186,333.560471 L330.479442,333.316075 C330.479442,333.316075 335.841116,335.242238 336.361331,335.77427 C336.881545,336.306838 336.736519,338.41321 336.736519,338.41321" id="Fill-91" fill="#E15959"></path>
                <path d="M175.569726,335.825378 C175.61216,337.176808 170.266599,338.44149 163.631111,338.650436 C156.993743,338.859112 151.579966,337.933093 151.537533,336.581126 C151.495099,335.230502 156.839854,333.966625 163.477222,333.75768 C170.11271,333.548734 175.527024,334.474485 175.569726,335.825378" id="Fill-93" fill="#EBEBEB"></path>
                <path d="M209.155444,334.63439 C209.155444,335.986626 203.830832,337.082648 197.264096,337.082648 C190.69575,337.082648 185.371943,335.986626 185.371943,334.63439 C185.371943,333.28296 190.69575,332.187743 197.264096,332.187743 C203.830832,332.187743 209.155444,333.28296 209.155444,334.63439" id="Fill-95" fill="#EBEBEB"></path>
                <path d="M249.883624,137.025507 L252.232512,132.028278 C257.993815,132.329342 261.844262,129.237866 262.478886,127.325668 C258.539006,127.859579 253.104818,128.289824 249.002724,127.622971 C247.673585,127.69065 247.029024,128.193408 246.551243,129.914386 L244.929903,137.113866 L249.883624,137.025507 Z" id="Fill-97" fill="#CF8548"></path>
                <path d="M209.325017,335.013392 L197.364917,334.80015 C195.295607,333.534124 195.719943,329.886982 197.629724,329.15648 L201.779623,328.796331 C201.779623,328.796331 208.324067,331.225521 208.948486,331.871962 C209.572636,332.51706 209.325017,335.013392 209.325017,335.013392" id="Fill-99" fill="#8C2A35"></path>
                <path d="M175.561857,336.370113 L163.141433,336.040849 C161.235412,334.542245 161.97988,330.537103 163.963785,330.036225 L168.125233,330.165406 C168.125233,330.165406 174.689551,333.237277 175.232325,333.95274 C175.933554,334.706339 175.569914,335.849898 175.561857,336.370113" id="Fill-101" fill="#8C2A35"></path>
                <path d="M162.258357,329.031999 L158.693397,268.37235 C158.633506,265.892401 159.996484,274.401682 154.351931,208.131397 C154.200806,200.330865 203.812139,180.925009 206.384475,188.291 C206.384475,188.291 217.003889,263.99766 216.895656,264.592805 C217.020003,266.075564 203.365244,329.173802 203.365244,329.173802 C201.091823,331.021007 195.813404,330.161592 196.561364,327.741265 L197.606896,263.479862 L186.034606,228.031148 L180.659503,228.721097 C180.659503,228.721097 178.006866,267.393691 178.017071,267.805405 L169.973485,329.889802 C169.996313,332.898292 162.282259,332.042099 162.258357,329.031999" id="Fill-103" fill="#88B1B7"></path>
                <path d="M162.258357,329.031999 L158.332442,268.265192 C158.320894,267.780159 153.705836,206.379265 153.705836,206.379265 C154.530875,206.515697 163.280792,204.814056 167.440091,204.696692 L164.789334,267.29459 C164.797659,267.699589 164.833916,269.42943 164.845733,269.914463 L167.604186,330.573843 C167.607409,330.917072 167.72907,331.225924 167.935866,331.506039 C165.308474,331.947295 162.274202,331.009996 162.258357,329.031999" id="Fill-105" fill="#7A9DA5"></path>
                <path d="M203.613883,276.316512 C203.304762,268.921516 200.869395,266.29117 197.683115,264.725155 L196.401781,327.426451 C196.314765,329.128092 197.760731,330.413723 199.60525,330.069152 L203.613883,276.316512 Z" id="Fill-107" fill="#7A9DA5"></path>
                <path d="M241.206596,171.149406 C240.034032,174.515627 235.963359,176.136161 233.433188,175.349797 L200.228353,154.338178 C192.279571,152.884692 186.453275,133.491728 198.658309,135.038406 L237.741811,161.408745 C240.271445,162.194035 242.376474,167.782112 241.206596,171.149406" id="Fill-109" fill="#B5B5B5"></path>
                <path d="M210.789272,216.864288 L154.551313,218.957768 C154.016595,218.94998 153.48349,218.941923 152.942864,218.9293 C155.664255,191.443871 160.552714,144.534054 160.792544,142.547462 C162.000559,135.761308 167.378079,130.492021 171.367644,129.494562 C174.315706,128.635684 177.34004,128.118424 180.425877,127.877788 C197.139884,125.59443 208.434744,137.211302 209.467922,157.969393 L210.789272,216.864288 Z" id="Fill-111" fill="#C9C9C9"></path>
                <path d="M160.732708,142.128525 C161.712709,135.687479 165.368982,132.677915 169.353981,130.257588 C176.032709,126.770244 195.358532,138.415315 175.688675,164.33661 C169.953692,174.72613 170.235687,194.855774 168.36646,218.49586 C168.36646,218.49586 153.484349,218.942756 152.942918,218.929624 C154.32201,191.791155 159.867653,144.441962 160.732708,142.128525" id="Fill-113" fill="#B5B5B5"></path>
                <path d="M181.534334,116.441286 L181.166397,110.861804 C181.057359,108.992039 181.690908,107.119858 183.002053,105.612122 C184.312929,104.104386 186.143752,103.323661 187.971083,103.217577 L192.222232,102.969958 C193.04915,102.921885 193.888959,103.147481 194.555275,103.741014 C195.223201,104.334279 195.577978,105.218134 195.625246,106.045589 C195.625246,106.045589 187.614157,116.707167 181.534334,116.441286" id="Fill-115" fill="#4D1C29"></path>
                <path d="M198.507831,113.544762 C197.995136,111.766311 196.484715,108.398479 195.652694,106.045831 L189.492569,106.404905 C189.042182,106.43015 188.573532,106.562823 188.248298,106.926462 C187.926017,107.290371 187.750105,107.685433 187.776694,108.13582 L188.118042,114.003475 L185.935397,114.037046 L185.791714,111.557097 C185.75116,110.864731 184.933642,110.382384 184.239933,110.422938 L184.209585,110.423744 C183.516144,110.464566 182.923954,111.029363 182.962628,111.722534 L183.142299,115.74943 L181.481748,115.831612 L181.634832,127.645075 C184.855489,130.843172 190.212598,131.396958 192.894778,127.92895 L192.819579,122.293874 L195.769789,122.134077 C196.191708,122.1091 196.605033,121.886995 196.911199,121.546452 C197.214949,121.20564 197.230526,119.599072 197.210114,119.175541 C197.111013,117.975583 197.039306,116.760854 196.964107,115.533771 C196.885954,115.102452 199.148095,114.872558 198.507831,113.544762" id="Fill-117" fill="#CF8548"></path>
                <path d="M188.20342,106.870063 C188.528386,106.506692 188.997304,106.373751 189.44796,106.348506 L195.607547,105.989969 C195.69886,106.25021 196.209944,107.548732 196.316028,107.831534 L190.690889,108.05525 C190.241307,108.079958 189.771583,108.21263 189.447154,108.576808 C189.124874,108.940447 188.947888,109.334704 188.97555,109.786434 L189.002139,112.007484 L189.443394,116.052374 C188.936071,116.202771 187.938881,115.361619 188.098142,114.399343 L187.902893,111.024528 L187.731816,108.07969 C187.705228,107.629034 187.881139,107.23424 188.20342,106.870063" id="Fill-119" fill="#B27042"></path>
                <path d="M124.099532,167.183046 C122.15806,164.193625 122.438175,160.469136 124.729053,158.862567 L166.46761,131.979802 C170.477317,129.168173 176.048205,130.459712 178.910863,134.864213 C181.774325,139.268446 180.846426,145.118107 176.838867,147.929199 L131.766049,169.685554 C129.475709,171.291854 126.043689,170.171929 124.099532,167.183046" id="Fill-121" fill="#C9C9C9"></path>
                <path d="M183.144555,115.715591 L183.225931,116.064459 C183.421985,116.553789 183.961536,116.741517 184.585955,116.706066 L184.773952,116.694786 C185.529968,116.652084 186.059314,116.180749 186.014463,115.424195 L186.16325,118.196614 L192.836606,122.99 L192.855137,124.489948 C192.594627,124.504182 189.45266,124.90005 189.45266,124.90005 C186.034069,125.164051 183.526995,122.847123 183.390294,120.397253 L183.144555,115.715591 Z" id="Fill-123" fill="#B27042"></path>
                <path d="M197.20238,119.057479 L194.843823,119.195791 C194.278221,119.227482 193.797217,118.840208 193.76284,118.275143 C193.729807,117.709003 194.164885,117.268822 194.729951,117.236057 L197.070513,117.099893 L196.982692,115.79412 L195.771723,115.86529 L193.59042,115.993397 L189.842566,116.211473 C189.426824,116.234838 189.011888,115.985877 188.676447,115.689379 C188.34235,115.391 188.169392,114.870249 188.143341,114.455313 L188.03672,113.282211 L185.897852,113.444963 L186.246452,119.365794 C186.301239,120.304973 186.607675,121.409053 187.365302,122.084231 C188.124542,122.760214 188.977511,123.249006 189.917496,123.194219 L195.702701,122.856361 C197.363789,122.541601 197.27731,120.903072 197.272207,120.115096 L197.20238,119.057479 Z" id="Fill-125" fill="#4D1C29"></path>
                <path d="M166.46769,131.979775 C166.46769,131.979775 129.96485,155.520759 129.979617,155.548422 C131.442775,159.691607 150.272017,153.282789 161.153821,147.68773 C171.435645,142.13215 178.192257,136.465652 175.980876,132.372689 C175.826181,132.086128 175.628516,131.827766 175.398085,131.593038 C172.583501,130.060326 169.172161,130.083423 166.46769,131.979775" id="Fill-127" fill="#DEDEDE"></path>
                <path d="M251.205216,136.107813 L240.873975,172.892112 C239.310914,175.766317 235.609254,176.6448 232.600227,174.95793 C229.603287,173.075543 228.449791,169.098064 230.020908,166.071849 L244.930682,133.264493 C245.474262,131.837596 251.742619,134.613237 251.205216,136.107813" id="Fill-129" fill="#B5B5B5"></path>
                <path d="M147.320357,181.560573 L151.299716,185.378523 C149.30668,191.725033 152.14812,197.970831 154.387701,198.776801 C154.815797,194.395397 155.792845,188.369824 157.783733,183.87589 C158.069488,182.403605 157.614804,181.663703 155.573157,181.04197 L148.708849,176.601481 L147.320357,181.560573 Z" id="Fill-131" fill="#CF8548"></path>
                <path d="M149.817065,185.175728 L125.023483,169.263931 C120.947977,166.238253 121.034993,160.483128 124.901017,158.913085 C127.914609,157.272139 131.853414,158.24113 133.699008,161.079079 L154.454414,180.023268 C155.157791,181.365298 150.574155,186.559655 149.817065,185.175728" id="Fill-133" fill="#C9C9C9"></path>
                <path d="M190.106191,115.646107 C190.106191,115.646107 190.107427,115.643017 190.109899,115.632511 L190.104955,115.610882 C190.104955,115.62386 190.105573,115.635601 190.106191,115.646107" id="Fill-135" fill="#CF7C37"></path>
                <path d="M318.085525,198.569198 C308.214608,207.804148 293.775095,216.13161 290.938221,218.676015 C284.551963,222.667728 289.201397,230.083404 294.227362,225.967344 L319.785555,201.801941 C321.131613,200.914327 319.498725,197.66735 318.085525,198.569198" id="Fill-137" fill="#7D3D23"></path>
                <path d="M316.362908,200.081205 C317.569312,198.975245 318.37179,197.314963 320.179516,197.163491 C323.627649,197.204045 325.88979,196.629311 327.816222,196.294677 C328.345031,196.178924 328.789778,197.082384 327.906461,197.365991 C326.766125,197.67538 325.665268,198.21708 324.548835,198.555743 C324.601205,198.836665 325.642708,199.030301 327.312122,199.54971 L332.306934,197.724259 C332.806468,197.494366 333.291501,197.653358 333.541268,198.104013 L327.879336,201.370595 C327.492599,201.518307 326.338297,201.797349 325.34245,201.806749 L320.054632,201.540061 C319.690723,201.622243 317.144976,200.767662 316.362908,200.081205" id="Fill-139" fill="#7D3F26"></path>
                <line x1="316.879846" y1="205.561129" x2="313.803141" y2="201.832343" id="Stroke-141" stroke="#F0B64A" stroke-width="3" stroke-linecap="round"></line>
                <line x1="315.222545" y1="206.928619" x2="312.14584" y2="203.199833" id="Stroke-143" stroke="#F0B64A" stroke-width="3" stroke-linecap="round"></line>
                <line x1="313.979912" y1="207.954358" x2="310.902938" y2="204.225572" id="Stroke-145" stroke="#F0B64A" stroke-width="3" stroke-linecap="round"></line>
                <path d="M415.279275,138.141726 C425.150192,147.376407 439.589704,155.703868 442.426579,158.248542 C448.812837,162.240256 444.163402,169.655931 439.137437,165.539603 L413.579245,141.3742 C412.233186,140.486586 413.866075,137.239609 415.279275,138.141726" id="Fill-147" fill="#DB8135"></path>
                <path d="M417.001891,139.653598 C415.795488,138.54737 414.993009,136.887356 413.185284,136.735884 C409.73715,136.776438 407.475009,136.201704 405.548577,135.867338 C405.019768,135.751317 404.575021,136.654777 405.458338,136.938115 C406.598675,137.247773 407.699531,137.789473 408.815965,138.128136 C408.763594,138.409058 407.722091,138.602695 406.052678,139.122103 L401.057866,137.296384 C400.558331,137.067028 400.073299,137.225751 399.823531,137.676406 L405.485464,140.942989 C405.8722,141.090701 407.026502,141.369742 408.022349,141.378873 L413.310167,141.112454 C413.674076,141.194636 416.219824,140.340055 417.001891,139.653598" id="Fill-149" fill="#DB8135"></path>
                <path d="M116.054442,4.83420855 L255.305968,4.83420855 C257.807402,4.83420855 260.509993,7.75514479 260.509993,10.256042 L260.509993,66.3615979 C260.509993,68.8641065 257.807402,71.7074269 255.305968,71.7074269 L157.787627,71.7074269 L161.475323,93.2207292 L139.962557,71.7074269 L116.054442,71.7074269 C113.550053,71.7074269 111.723797,68.8641065 111.723797,66.3615979 L111.723797,10.256042 C111.723797,7.75514479 113.550053,4.83420855 116.054442,4.83420855" id="Fill-151" fill="#EBEBEB"></path>
                <path d="M390.159089,29.5423856 L486.632435,29.5423856 C489.133601,29.5423856 491.74649,32.370129 491.74649,34.8710263 L491.74649,73.8371643 C491.74649,76.3399415 489.133601,79.2273068 486.632435,79.2273068 L439.655208,79.2273068 L443.342903,100.740609 L421.830675,79.2273068 L390.159089,79.2273068 C387.654969,79.2273068 385.931036,76.3399415 385.931036,73.8371643 L385.931036,34.8710263 C385.931036,32.370129 387.654969,29.5423856 390.159089,29.5423856" id="Fill-153" fill="#EBEBEB"></path>
                <path d="M282.258829,54.5191298 C280.085047,54.5191298 277.698559,56.7020435 277.698559,58.6902461 L277.698559,120.851454 C277.698559,122.995962 280.246187,126.495124 282.258829,126.495124 L308.376178,126.495124 C308.574112,126.495124 308.762109,126.582408 308.88941,126.73388 C309.017248,126.885083 309.071498,127.084897 309.037927,127.279877 L305.787728,146.239106 L325.334581,126.691715 C325.460271,126.565757 325.63108,126.495124 325.80914,126.495124 L360.942287,126.495124 C361.803045,126.495124 362.740613,125.792552 363.514892,124.567886 C364.243515,123.415464 364.714313,121.956608 364.714313,120.851454 L364.714313,58.6902461 C364.714313,56.5070638 362.916256,54.5191298 360.942287,54.5191298 L282.258829,54.5191298 Z M304.768784,148.878852 C304.664043,148.878852 304.558227,148.854144 304.460469,148.803653 C304.200764,148.669101 304.057887,148.382272 304.107572,148.09383 L307.579876,127.837959 L282.258829,127.837959 C279.465194,127.837959 276.355723,123.673557 276.355723,120.851454 L276.355723,58.6902461 C276.355723,55.9589182 279.33467,53.1762941 282.258829,53.1762941 L360.942287,53.1762941 C363.666901,53.1762941 366.057149,55.7529272 366.057149,58.6902461 L366.057149,120.851454 C366.057149,123.599701 363.860806,127.837959 360.942287,127.837959 L326.087107,127.837959 L305.243879,148.681992 C305.114967,148.811173 304.943084,148.878852 304.768784,148.878852 L304.768784,148.878852 Z" id="Fill-155" fill="#D9D9D9"></path>
                <g id="Group-159" transform="translate(514.843211, 0.000000)">
                    <mask id="mask-2" fill="white">
                        <use xlink:href="#path-1"></use>
                    </mask>
                    <g id="Clip-158"></g>
                    <path d="M6.60586542,1.30639115 C4.57281215,1.30639115 2.10575439,3.12029362 2.0909832,5.23767697 L1.38029287,107.658442 C1.37337179,108.685711 1.95992243,110.120397 2.87546782,111.313104 C3.82377839,112.548781 4.92785791,113.290027 5.82863211,113.296204 L51.2237304,113.611501 C51.4213958,113.612844 51.6085871,113.701471 51.7353508,113.85348 C51.8618459,114.005758 51.9147536,114.206109 51.8798399,114.40082 L48.4975053,133.336684 L68.1794483,113.925456 C68.3064806,113.800573 68.4775578,113.738534 68.6556179,113.732088 L97.240293,113.930559 C99.236284,113.930828 101.001576,110.452615 101.016078,108.350003 L101.727335,5.92896879 C101.734227,4.91727637 101.338359,3.90262971 100.641159,3.14553893 C99.9318729,2.37528837 98.9999449,1.94772948 98.0169892,1.94074674 L6.60586542,1.30639115 Z M47.4651332,135.969447 C47.3585121,135.969447 47.2513538,135.943934 47.1527896,135.8921 C46.8938909,135.755937 46.7528932,135.467764 46.8044581,135.17986 L50.418029,114.948697 L5.81923226,114.639039 C4.48794494,114.629908 3.02667112,113.715705 1.81033053,112.130622 C0.707593848,110.694057 0.0283875469,108.976838 0.0374279026,107.648774 L0.748147487,5.24653968 C0.765335784,2.81170998 3.31726077,8.05701425e-05 6.58196294,8.05701425e-05 L6.61526527,8.05701425e-05 L98.026389,0.616173593 C99.3856074,0.625573443 100.665061,1.19815859 101.62868,2.24503331 C102.554162,3.24974299 103.07948,4.5949958 103.070204,5.94293428 L102.343606,108.361551 C102.325075,111.08133 100.175463,115.274469 97.2212248,115.274469 L97.2212248,115.273932 L68.9091452,115.077072 L47.9292173,135.776079 C47.8005736,135.903111 47.6375533,135.969447 47.4651332,135.969447 L47.4651332,135.969447 Z" id="Fill-157" fill="#D9D9D9" mask="url(#mask-2)"></path>
                </g>
                <path d="M5.14016024,69.0217554 C3.15276339,69.0217554 1.34288942,71.0217749 1.34288942,73.218117 L1.34288942,121.60559 C1.34288942,123.874983 3.25643031,127.032258 5.14016024,127.032258 L42.0359142,127.032258 C42.2139742,127.032258 42.3847829,127.102891 42.5104723,127.228849 L62.057326,146.77624 L58.8068579,127.817011 C58.7735556,127.622032 58.8278062,127.422218 58.9553755,127.271014 C59.0829449,127.119542 59.2706734,127.032258 59.4686074,127.032258 L93.4520192,127.032258 C95.4485473,127.032258 97.7584933,123.748219 97.7584933,121.60559 L97.7584933,73.218117 C97.7584933,71.1788867 95.5449629,69.0217554 93.4520192,69.0217554 L5.14016024,69.0217554 Z M63.0762698,149.323331 C62.9019697,149.323331 62.7300867,149.301845 62.6011745,149.172933 L41.7576786,128.375094 L5.14016024,128.375094 C3.78980465,128.375094 2.47167712,127.511919 1.42856234,125.944293 C0.547393548,124.620257 5.37134284e-05,122.957826 5.37134284e-05,121.60559 L5.37134284e-05,73.218117 C5.37134284e-05,70.2673698 2.40184966,67.6789197 5.14016024,67.6789197 L93.4520192,67.6789197 C96.3028594,67.6789197 99.101329,70.4226017 99.101329,73.218117 L99.101329,121.60559 C99.101329,124.436557 96.2545173,128.375094 93.4520192,128.375094 L60.2649089,128.375094 L63.723248,148.547709 C63.7425848,148.609748 63.7686359,148.676084 63.7686359,148.744569 C63.7686359,149.11546 63.3818992,149.369524 63.113332,149.369524 L63.113332,149.323331 L63.0762698,149.323331 Z" id="Fill-160" fill="#D9D9D9"></path>
                <path d="M482.56426,344.345026 C482.629522,345.329325 478.416509,346.331349 473.155279,346.58219 C467.892706,346.833301 463.574415,346.238693 463.509422,345.254126 C463.444697,344.269827 467.657173,343.26834 472.919209,343.017767 C478.181245,342.766657 482.499536,343.360996 482.56426,344.345026" id="Fill-162" fill="#EBEBEB"></path>
                <path d="M523.118167,345.061053 C523.179401,346.049111 520.153723,346.991513 516.361018,347.165814 C512.566701,347.340114 509.441654,346.680244 509.380152,345.691917 C509.318919,344.70359 512.344059,343.761725 516.138107,343.587962 C519.931618,343.413393 523.056665,344.072994 523.118167,345.061053" id="Fill-164" fill="#EBEBEB"></path>
                <path d="M573.221677,335.844795 C573.221677,337.80077 571.052192,339.46884 568.377263,339.46884 L507.913131,339.46884 C505.237665,339.46884 503.06818,337.80077 503.06818,335.844795 L516.814789,283.476351 C516.814789,281.520377 518.984006,280.115502 521.65974,280.115502 L555.547005,280.115502 C558.222471,280.115502 560.391688,281.520377 560.391688,283.476351 L573.221677,335.844795 Z" id="Stroke-166" stroke="#C1C1C1" stroke-width="4"></path>
                <path d="M537.526123,224.795935 C537.491478,226.858799 539.136989,228.497864 541.199584,228.532241 L570.249418,229.018079 C572.171284,229.050038 573.966656,227.68518 574.617662,225.416056 L578.885463,203.324797 C578.919571,201.262202 577.275134,199.589029 575.212807,199.554383 L546.585698,199.075797 C544.664906,199.043837 542.331595,200.493831 541.793386,202.704676 L537.526123,224.795935 Z" id="Fill-168" fill="#C1C1C1"></path>
                <path d="M506.484059,280.652663 C506.484059,281.751103 507.262903,282.532633 508.225448,282.532633 L569.448014,282.532633 C570.752981,282.532633 571.811941,281.751103 571.811941,280.652663 C571.811941,279.553686 570.752981,278.772693 569.448014,278.772693 L508.225448,278.772693 C507.262903,278.772693 506.484059,279.553686 506.484059,280.652663" id="Fill-170" fill="#C1C1C1"></path>
                <path d="M540.273941,267.418131 L497.322266,282.147159 C497.298633,282.69423 496.986826,284.391843 496.945198,284.760317 L515.792703,337.195903 C516.526429,340.194724 512.348598,340.431868 510.50005,337.44755 L474.749467,284.955028 C467.99178,270.491076 482.029248,267.624391 530.492457,251.903007 C537.731147,248.760235 547.514511,264.274821 540.273941,267.418131" id="Fill-172" fill="#B27042"></path>
                <path d="M550.786626,268.669681 L501.295878,280.921177 C498.70152,281.351958 473.531407,342.585804 473.531407,342.585804 C471.707299,345.246767 468.756284,342.61078 470.051851,338.589525 L480.087131,277.196419 C486.264176,260.47704 493.927739,265.23981 539.76651,249.970962 C547.0052,246.828189 558.027196,265.526102 550.786626,268.669681" id="Fill-174" fill="#CF8C53"></path>
                <path d="M463.401323,345.026435 L472.803322,345.062691 C474.380348,345.013543 475.584872,342.219371 474.16066,340.839473 L469.463421,340.088559 C469.463421,340.088559 464.268795,341.954564 463.764963,342.469675 C463.261131,342.985861 463.401323,345.026435 463.401323,345.026435" id="Fill-176" fill="#FCB23B"></path>
                <path d="M509.716318,346.051636 L518.156577,338.98832 C518.850823,337.02214 516.586802,334.710851 514.915778,335.207163 L511.377406,337.76634 C511.377406,337.76634 508.327289,342.893823 508.260952,343.67052 C508.195422,344.447216 509.716318,346.051636 509.716318,346.051636" id="Fill-178" fill="#FCB23B"></path>
                <path d="M568.616449,241.978995 C560.899978,233.49845 563.883222,221.931263 566.109912,208.945236 C566.982487,200.910245 561.910865,191.492669 554.051516,181.899719 L538.332281,183.094575 C537.130712,187.191835 529.443783,201.356066 528.783913,202.028558 C524.944478,209.897844 538.874518,221.871104 536.0645,241.173293 L536.015889,242.514786 C535.650101,254.801196 509.978036,257.38132 499.687886,261.252716 C492.931006,263.311551 491.359888,268.85048 507.416443,278.852458 C509.761034,278.76947 512.293354,278.772693 514.929072,278.772693 L554.820424,278.772693 C571.918751,277.912741 568.97418,252.544158 568.616449,241.978995" id="Fill-180" fill="#8C2A35"></path>
                <path d="M568.616449,241.978995 C560.984308,230.282896 566.245538,219.567604 566.465495,207.191493 C565.908218,203.485535 564.793396,196.073619 561.690102,191.853623 C559.356523,187.778923 552.801873,182.444911 550.870069,184.812062 C547.183985,186.059556 541.125648,188.05501 540.864601,203.573893 C541.483916,210.671049 542.959156,231.300497 535.649832,228.819205 C535.917325,230.425236 536.389735,232.900888 536.522676,234.190548 C536.782111,236.706216 552.298578,230.463373 552.860421,232.937145 C555.933366,238.59102 557.432508,237.301092 561.096569,246.276069 C564.94809,256.099449 561.29316,275.259298 544.581301,274.744186 L501.776265,274.744186 C503.452123,276.087022 505.410515,277.409446 507.674268,278.819424 C510.018859,278.736437 512.551178,278.772693 515.186896,278.772693 L558.750904,278.772693 C579.612662,270.876014 576.569796,251.545356 568.616449,241.978995" id="Fill-182" fill="#71222B"></path>
                <path d="M480.087104,276.938353 L473.0066,320.310603 C477.972944,316.714489 493.663979,269.153128 489.204153,266.633969 C488.704081,266.351705 488.127199,266.230044 487.487203,266.255289 C484.115612,268.554761 482.027502,271.685985 480.087104,276.938353" id="Fill-184" fill="#DE9659"></path>
                <path d="M502.279559,240.367592 L508.3336,235.339209 L516.3651,236.320285 L546.213115,231.29244 L549.539319,194.308059 C550.064905,190.731013 553.412057,188.260195 557.014617,188.790078 C560.617177,189.319424 563.111628,192.648582 562.585774,196.225896 L553.965306,235.781002 C553.889838,236.29504 553.712047,236.768792 553.458251,237.190174 C552.833564,238.852605 551.295748,240.083179 549.418733,240.207794 L516.44567,240.499727 C516.261702,240.511812 516.094653,240.462396 515.94533,240.367592 L502.279559,240.367592 Z" id="Fill-186" fill="#CF8C53"></path>
                <path d="M518.871718,240.229629 C518.871718,240.750649 518.429925,241.173374 517.811146,241.173374 L517.500683,241.173374 C516.881635,241.173374 516.186047,240.750649 516.186047,240.229629 L516.186047,235.939806 C516.186047,235.418786 516.881635,234.99633 517.500683,234.99633 L517.811146,234.99633 C518.429925,234.99633 518.871718,235.418786 518.871718,235.939806 L518.871718,240.229629 Z" id="Fill-188" fill="#FCB23B"></path>
                <path d="M534.016112,163.599366 C534.065528,164.880969 534.477779,165.886216 535.083666,166.728442 C537.447325,170.01087 549.827465,171.104207 549.984577,165.451674 C549.371438,157.053311 533.58721,154.995818 534.016112,163.599366" id="Fill-190" fill="#2B162B"></path>
                <path d="M534.425542,168.266499 L537.174058,162.134037 C544.600746,164.976552 546.506498,177.755514 544.429131,185.503138 C542.155442,185.501527 540.335631,185.123653 538.137946,184.145263 L538.725302,178.152456 C538.204282,178.032138 536.10543,177.721406 535.548153,177.60995 C534.184638,177.35884 534.232442,176.380987 534.269505,175.217286 L534.855787,171.430757 C533.109295,171.129425 533.720822,169.619541 534.425542,168.266499" id="Fill-192" fill="#CF8548"></path>
                <path d="M546.525996,183.49012 L546.205327,185.647789 C543.009915,185.863717 540.567297,185.906687 537.816901,184.683096 L538.295487,182.489439 C540.98089,183.635415 543.431834,183.660929 546.525996,183.49012" id="Fill-194" fill="#FCB23B"></path>
                <path d="M538.725222,178.152348 C541.296215,177.675642 542.707804,176.887934 542.590171,172.542249 C544.278653,173.088515 545.269934,174.369312 545.106377,176.870209 C545.404218,177.601517 544.857147,182.683882 542.984428,182.825685 C542.670741,181.828764 542.913258,178.856263 538.725222,178.152348" id="Fill-196" fill="#B27042"></path>
                <path d="M553.457875,166.792522 C554.336358,173.488707 553.726979,173.102507 556.064856,175.910645 C563.112595,182.324566 561.830187,191.618063 550.507934,189.92797 L550.36425,189.905411 C548.081967,189.540965 545.874882,188.39284 544.38326,186.553155 C542.892175,184.713739 542.297836,182.52438 542.624145,180.477898 L544.179149,170.738311 C542.540621,168.531763 538.306928,167.870282 537.108045,162.452746 C536.605287,153.996372 552.85897,157.559453 553.457875,166.792522" id="Fill-198" fill="#3D1E3C"></path>
                <path d="M545.667843,169.171597 C544.029584,166.964244 539.795891,166.3033 538.597008,160.885227 C538.538997,159.915699 538.703629,159.10597 539.037726,158.443146 C537.769284,159.192717 536.992319,160.502519 537.108071,162.452585 C538.306955,167.870121 542.540379,168.531602 544.179176,170.738418 L542.49714,180.432618 C542.170831,182.479099 542.892202,184.713847 544.383287,186.553263 C545.874909,188.392679 547.977521,189.855027 550.260073,190.218399 C557.329297,192.004639 562.679155,186.656393 560.010134,181.810904 C549.624912,186.856207 543.01816,179.314036 545.667843,169.171597" id="Fill-200" fill="#2B162B"></path>
                <path d="M542.585364,172.510317 C542.485726,173.143061 543.004597,173.494347 543.679775,173.762914 L543.680849,173.762914 C544.586995,174.031481 545.204968,173.303127 545.222693,172.924179 L545.691074,170.253816 C545.79125,169.621071 545.263516,169.047143 544.583772,168.921991 L544.588069,168.934345 C543.792842,168.836318 543.150161,169.201032 543.049985,169.833239 L542.585364,172.510317 Z" id="Fill-202" fill="#CF8548"></path>
                <path d="M555.493104,160.697579 C555.012906,162.286422 553.336778,163.184511 551.748203,162.704044 C550.160435,162.224383 549.262346,160.547181 549.742007,158.959144 C550.221936,157.371912 551.89887,156.473286 553.486639,156.953484 C555.075213,157.433683 555.973302,159.110347 555.493104,160.697579" id="Fill-204" fill="#3D1E3C"></path>
                <path d="M546.057051,174.748045 C546.057051,175.934575 545.095043,176.896582 543.908514,176.896582 C542.721984,176.896582 541.759977,175.934575 541.759977,174.748045 C541.759977,173.561247 542.721984,172.599508 543.908514,172.599508 C545.095043,172.599508 546.057051,173.561247 546.057051,174.748045" id="Fill-206" fill="#FCB23B"></path>
                <polygon id="Fill-208" fill="#E39144" points="39.4793698 244.933233 589.773443 244.933233 589.773443 239.830458 39.4793698 239.830458"></polygon>
                <line x1="442.91153" y1="257.165097" x2="433.428962" y2="293.119523" id="Stroke-210" stroke="#858585" stroke-width="4"></line>
                <path d="M353.762736,348.152449 C353.762736,349.586866 348.872934,350.748956 342.841184,350.748956 C336.809166,350.748956 331.919364,349.586866 331.919364,348.152449 C331.919364,346.718569 336.809166,345.556479 342.841184,345.556479 C348.872934,345.556479 353.762736,346.718569 353.762736,348.152449" id="Fill-211" fill="#EBEBEB"></path>
                <path d="M403.447657,351.912389 C403.447657,353.346806 399.519862,354.508896 394.674643,354.508896 C389.829154,354.508896 385.90136,353.346806 385.90136,351.912389 C385.90136,350.478509 389.829154,349.316419 394.674643,349.316419 C399.519862,349.316419 403.447657,350.478509 403.447657,351.912389" id="Fill-212" fill="#EBEBEB"></path>
                <path d="M390.198407,239.830458 L359.671186,239.830458 C358.188158,239.830458 362.962208,230.177617 362.962208,230.177617 L389.482139,235.80195 C390.965166,235.80195 391.681435,239.830458 390.198407,239.830458" id="Fill-213" fill="#B97743"></path>
                <path d="M369.917398,210.307731 L354.534947,230.281338 C349.684087,236.487119 356.654747,241.038526 361.545892,239.552007 L377.301115,225.715428 L369.917398,210.307731 Z" id="Fill-214" fill="#CF8548"></path>
                <path d="M332.029235,348.324761 L344.004913,347.973475 C345.976732,346.560812 345.22743,342.227213 343.269844,341.636902 L339.104368,341.577818 C339.104368,341.577818 332.753024,344.474851 332.177216,345.164532 C331.601676,345.853138 332.029235,348.324761 332.029235,348.324761" id="Fill-215" fill="#88B1B7"></path>
                <path d="M386.407797,352.55652 L393.032811,342.574148 C393.016697,340.14845 389.045395,338.259348 387.433186,339.517317 L384.981168,342.88488 C384.981168,342.88488 383.681572,349.743279 383.912271,350.612094 C384.142433,351.479029 386.407797,352.55652 386.407797,352.55652" id="Fill-216" fill="#88B1B7"></path>
                <path d="M363.086769,269.600239 L378.810838,280.575504 L346.080829,343.732021 C344.359851,346.203376 337.432967,342.447733 339.15314,339.97611 C339.15314,339.97611 361.296232,271.96739 362.177132,270.769043 C362.194858,270.724461 362.513915,270.314896 363.086769,269.600239" id="Fill-217" fill="#B5B5B5"></path>
                <path d="M403.114553,170.84281 L402.065798,175.242477 L400.612044,184.089347 C392.175276,184.139032 386.243434,178.460717 387.081363,170.291173 C372.695296,162.493595 402.566139,156.863353 403.114553,170.84281" id="Fill-218" fill="#3D1E3C"></path>
                <path d="M382.776903,176.465398 C383.736762,173.889839 385.756387,171.231561 387.173079,170.212886 L389.940126,170.933452 C390.386753,171.049741 390.87474,171.150185 391.128267,171.579624 C391.379377,172.0096 391.51957,172.314961 391.403011,172.76132 L390.073335,177.868124 L392.410407,178.484485 L392.957209,176.385902 C393.136075,175.698907 393.745723,175.254428 394.433254,175.433563 L394.499859,175.45102 C395.187122,175.630154 395.734731,176.375428 395.555865,177.062691 L394.899756,179.583194 C394.797969,179.974764 394.445877,180.255954 394.103454,180.410112 L400.677441,183.989843 L400.404039,188.981701 C400.348177,189.016614 386.796548,193.905611 386.796548,193.905611 L386.987499,186.529146 C383.757711,186.056467 383.513852,183.408127 383.793967,181.717497 L384.395558,179.365654 C384.557772,178.680271 383.96773,178.343219 383.328003,178.000259 C382.45328,177.64951 382.525793,177.09089 382.776903,176.465398" id="Fill-219" fill="#CF8A51"></path>
                <path d="M393.971249,175.704755 C393.971249,175.704755 393.971867,175.699811 393.973721,175.691777 L393.984226,175.674474 C393.979901,175.685598 393.974957,175.694249 393.971249,175.704755" id="Fill-220" fill="#CF8A51"></path>
                <path d="M387.959148,180.685877 C388.285189,180.770744 388.648291,180.748184 388.962246,180.564484 C389.275933,180.379979 389.491055,180.103892 389.576191,179.77812 L390.199267,177.383844 L392.538755,177.993222 L390.640791,185.280792 C390.494422,185.84344 390.196581,186.436436 389.655687,186.75442 C389.114524,187.071597 388.349108,187.17043 387.786191,187.023792 L385.523513,186.434556 C384.760782,186.236085 384.179603,185.705396 383.749895,184.972208 C383.319382,184.239288 383.367993,183.368862 383.566464,182.606937 L384.313886,179.73676 L387.959148,180.685877 Z" id="Fill-221" fill="#B97743"></path>
                <path d="M375.337782,227.118101 L363.96826,217.002251 C374.120904,203.351788 383.07171,196.897046 386.97587,193.457775 L400.403959,188.981566 C434.3444,202.574287 425.537277,225.422905 437.098556,266.418605 L394.424848,266.418605 L384.9216,220.975164 L375.337782,227.118101 Z" id="Fill-222" fill="#88B1B7"></path>
                <path d="M395.478759,265.572779 L354.416723,264.797963 C341.45809,263.419677 336.10501,275.328481 342.036315,282.973782 L384.537603,343.988476 L390.59594,339.246655 L366.027418,286.381899 L398.902991,294.285024 C447.717754,298.991394 439.245267,273.974097 437.098609,266.362904 L395.478759,265.572779 Z" id="Fill-223" fill="#C9C9C9"></path>
                <path d="M447.78221,353.397108 C447.78221,355.353083 445.612725,356.925812 442.937528,356.925812 L382.473664,356.925812 C379.79793,356.925812 377.628713,355.353083 377.628713,353.397108 L391.375322,297.354934 C391.375322,295.39896 393.54427,294.081101 396.220005,294.081101 L430.107538,294.081101 C432.782735,294.081101 434.952221,295.39896 434.952221,297.354934 L447.78221,353.397108 Z" id="Stroke-224" stroke="#C1C1C1" stroke-width="4"></path>
                <path d="M397.014614,220.475253 C387.046745,202.984281 373.864395,223.951318 373.093339,225.121196 L375.345006,227.433291 L384.921573,220.975057 L394.424821,266.418497 L437.098529,266.418497 C435.654443,261.555821 434.472211,256.965202 433.484152,252.633752 L432.721422,250.573036 C422.093683,250.448421 410.294185,255.155597 403.044752,235.801843 C401.234341,230.703096 399.536997,225.60972 397.014614,220.475253" id="Fill-225" fill="#7A9DA5"></path>
                <path d="M401.030553,197.396849 C404.610015,222.853254 419.321586,215.260861 423.841571,209.118999 C419.83455,200.723859 413.107211,194.176729 400.135418,188.981566 L393.319721,191.448087 C396.83258,192.260234 400.444539,193.926693 401.030553,197.396849" id="Fill-226" fill="#96C3C9"></path>
                <line x1="413.409027" y1="257.165097" x2="403.926458" y2="293.119523" id="Stroke-227" stroke="#858585" stroke-width="4"></line>
                <path d="M406.93194,255.519076 C406.93194,257.902609 408.86428,259.704426 411.247545,259.704426 L444.814678,259.704426 C447.035728,259.704426 449.082747,258.153451 449.791495,255.519076 L454.294829,230.033397 C454.294829,227.650401 452.362489,225.864966 449.979492,225.864966 L416.901152,225.864966 C414.681444,225.864966 412.014304,227.468849 411.435273,230.033397 L406.93194,255.519076 Z" id="Fill-228" fill="#F0BC5C"></path>
                <path d="M381.044323,294.618155 C381.044323,295.716594 381.823168,296.498125 382.785712,296.498125 L444.008278,296.498125 C445.313246,296.498125 446.372206,295.716594 446.372206,294.618155 C446.372206,293.519178 445.313246,292.738185 444.008278,292.738185 L382.785712,292.738185 C381.823168,292.738185 381.044323,293.519178 381.044323,294.618155" id="Fill-229" fill="#F0BC5C"></path>
                <path d="M341.518276,269.533366 C343.563684,273.713076 353.678191,274.475538 365.848311,274.475538 C379.494207,274.475538 390.556488,273.309688 390.556488,267.895643 C390.556488,267.05852 390.291143,266.246373 389.793757,265.470482 L354.148183,264.79799 C348.241586,264.169811 343.916312,266.302772 341.518276,269.533366" id="Fill-230" fill="#DEDEDE"></path>
                <polygon id="Fill-231" fill="#E39144" points="541.431358 356.12003 542.774194 356.12003 542.774194 244.664666 541.431358 244.664666"></polygon>
                <path d="M125.144956,192.025506 C125.160265,191.665358 126.038479,183.839848 126.038479,183.839848 C126.149129,182.723952 125.977246,181.398036 125.859345,180.947917 L122.894901,174.214402 C122.424371,173.782278 121.34876,174.44537 121.510437,175.381058 L122.944586,181.192851 C122.159027,182.997622 121.816066,184.139032 121.495397,184.164278 C121.251807,182.873007 120.780472,181.575559 120.572601,180.26146 C120.363655,179.238488 119.054122,179.786633 119.119384,180.392789 C119.259307,182.588863 119.62617,185.190741 119.160475,189.043605 C119.138452,189.93122 119.505046,190.610158 120.015861,191.216582 C119.958656,191.466887 119.920251,191.735185 119.907897,192.025506 L116.886517,232.632858 C116.886517,236.162905 119.592062,239.024756 122.929277,239.024756 C126.266493,239.024756 128.972038,236.162905 128.972038,232.632858 L125.144956,192.025506 Z" id="Fill-232" fill="#CF8548"></path>
                <path d="M145.016427,351.869122 C145.016427,353.221358 139.691815,354.31738 133.12508,354.31738 C126.556733,354.31738 121.232927,353.221358 121.232927,351.869122 C121.232927,350.517693 126.556733,349.422476 133.12508,349.422476 C139.691815,349.422476 145.016427,350.517693 145.016427,351.869122" id="Fill-233" fill="#EBEBEB"></path>
                <path d="M145.185973,352.248098 L133.225873,352.034855 C131.156563,350.76883 131.580899,347.121688 133.49068,346.391185 L137.64058,346.031037 C137.64058,346.031037 144.185024,348.460227 144.809442,349.106668 C145.433592,349.751766 145.185973,352.248098 145.185973,352.248098" id="Fill-234" fill="#F0BC5C"></path>
                <path d="M111.996688,177.306254 C111.414434,178.501915 110.584293,179.605458 109.974646,180.769159 C109.675193,180.651527 109.680296,179.459894 109.456043,177.50392 L112.524959,172.36435 C113.048934,171.488284 112.251021,170.62135 111.541735,170.84426 L106.740023,176.41864 C106.495627,176.814777 105.944259,178.032729 105.724034,179.132511 L104.320233,185.229522 C104.111825,185.444107 100.773535,190.382789 100.593595,190.682778 L106.016772,193.662799 L108.29261,188.713375 C108.345786,188.62448 108.39198,188.536121 108.437367,188.448299 C109.475917,187.918954 110.444101,187.335089 110.782496,186.117942 C111.462508,182.296769 112.573033,179.915384 113.348118,177.856011 C113.58768,177.295243 112.495417,176.388561 111.996688,177.306254" id="Fill-235" fill="#CF8548"></path>
                <path d="M108.838419,202.642825 L125.173209,232.837829 C127.854315,240.330852 120.614014,241.881559 117.003934,238.592685 L97.9482897,216.008069 L108.838419,202.642825 Z" id="Fill-236" fill="#CF8548"></path>
                <path d="M96.3588961,162.203563 C96.3588961,162.203563 96.360132,162.199855 96.361368,162.191203 L96.3558062,162.172046 C96.3576601,162.183788 96.3588961,162.193675 96.3588961,162.203563" id="Fill-237" fill="#CF8A51"></path>
                <path d="M101.176252,159.342658 C110.264564,155.311734 103.121484,146.417864 96.308741,152.49903 C95.7439443,153.238395 93.2212932,155.554518 91.2376563,155.478782 C87.9576458,155.236535 82.5022414,157.438785 83.504534,161.523154 L86.2664785,168.838655 C93.0330276,168.515568 97.3185535,164.099788 101.176252,159.342658" id="Fill-238" fill="#572331"></path>
                <path d="M103.261192,166.78519 C102.14261,164.873529 101.201282,161.406865 101.183826,159.151707 L98.5510618,158.94867 C98.0990633,158.931481 97.7469718,159.090473 97.3887032,159.422422 C97.0304347,159.754103 96.9474474,160.203684 96.9299905,160.656757 L96.7325937,165.826943 L86.3148743,168.703834 L85.7361121,179.246169 C88.9965172,182.026107 93.3532134,181.760763 96.0603701,179.33211 L96.1968023,176.029809 C99.2445022,176.056934 100.888133,173.871334 100.863962,171.263279 L100.965749,168.906065 C100.971926,168.235184 101.150255,167.948892 101.835369,167.80682 C102.796303,167.745586 103.388493,167.411489 103.261192,166.78519" id="Fill-239" fill="#CF8A51"></path>
                <path d="M86.2044126,170.204426 L97.4442161,166.876611 L97.6416129,161.705619 C97.6590698,161.253352 97.7495769,160.793565 98.108114,160.461616 C98.4669197,160.129398 98.8265311,159.961007 99.2790668,159.978464 L101.283383,160.157329 C101.231013,159.654303 101.192071,159.402387 101.193413,158.901509 L98.5609182,158.698473 C98.1086512,158.681284 97.7568282,158.83759 97.3982911,159.169539 C97.0400225,159.501488 96.9573038,159.948384 96.939847,160.401188 L96.7424501,165.571643 L86.1848072,168.511647 L86.2044126,170.204426 Z" id="Fill-240" fill="#B27042"></path>
                <path d="M96.9053898,169.155591 C96.5355728,169.141357 96.2452518,168.957925 95.9726561,168.695267 C95.6997919,168.432608 95.6458099,168.053123 95.658164,167.723054 L95.7615623,165.935202 L93.2714078,166.879753 L92.9792068,172.294604 C92.898368,174.413867 92.4606036,176.219712 95.452173,176.333853 C98.4437424,176.447994 100.7177,174.814569 100.799076,172.696111 L100.92396,169.411535 L96.9053898,169.155591 Z" id="Fill-241" fill="#B27042"></path>
                <path d="M96.6983245,164.397199 C96.3126621,163.831865 95.478224,163.729004 94.8344686,164.167842 L94.7439614,164.23015 C94.1004746,164.668989 93.9712938,165.429034 94.3574933,165.994636 L95.7610252,168.243617 C96.1474933,168.80922 96.9018984,168.966332 97.5456539,168.527493 L97.636161,168.465454 C98.2796479,168.026615 98.4885931,167.211782 98.1026621,166.646449 L96.6983245,164.397199 Z" id="Fill-242" fill="#CF8A51"></path>
                <path d="M96.6983245,164.397199 C96.3126621,163.831865 95.478224,163.729004 94.8344686,164.167842 L94.7439614,164.23015 C94.1004746,164.668989 93.9712938,165.429034 94.3574933,165.994636 L95.7610252,168.243617 C96.1474933,168.80922 96.9018984,168.966332 97.5456539,168.527493 L97.636161,168.465454 C98.2796479,168.026615 98.4885931,167.211782 98.1026621,166.646449 L96.6983245,164.397199 Z" id="Fill-243" fill="#CF8A51"></path>
                <path d="M118.348677,260.997684 L100.340444,267.585636 L118.670957,346.255398 C120.050855,349.054136 124.28965,346.766212 123.332209,345.780302 C123.332209,345.780302 119.474242,263.74432 118.929319,262.360125 C118.923947,262.312589 118.719836,261.835077 118.348677,260.997684" id="Fill-244" fill="#B5B5B5"></path>
                <path d="M101.041055,219.956489 L111.962875,207.692102 C107.692926,195.653043 103.0682,185.251437 96.060209,179.331949 L85.9239479,178.219544 C52.1948692,183.00165 63.2259959,205.984821 45.8846156,256.48162 L88.558323,256.48162 L96.4754138,216.330833 L101.041055,219.956489 Z" id="Fill-245" fill="#8C2A35"></path>
                <path d="M87.5043581,255.635795 L116.74944,259.695187 C130.552717,260.077358 131.190564,268.181103 132.22965,274.362713 L137.834646,346.451505 L133.490573,346.391346 L117.056412,280.807519 L83.2744257,282.46807 C34.459662,287.17444 43.737851,264.037112 45.8845082,256.42592 L87.5043581,255.635795 Z" id="Fill-246" fill="#C9C9C9"></path>
                <path d="M27.7215541,353.292206 C27.7215541,355.552467 30.0545968,357.462785 32.9314881,357.462785 L93.9265773,357.462785 C96.8040057,357.462785 99.1367799,355.552467 99.1367799,353.292206 L84.3537701,285.486791 C84.3537701,283.338254 41.519191,283.338254 41.519191,285.486791 L27.7215541,353.292206 Z" id="Stroke-247" stroke="#C1C1C1" stroke-width="4"></path>
                <path d="M50.6343598,240.953256 C49.3245578,245.811367 47.7727769,250.983433 45.8844813,256.48154 L89.3638902,256.750107 L97.2809809,216.599319 L101.040921,219.956409 L104.312337,215.970335 C97.1660342,207.013352 90.3105893,205.470434 86.3594296,214.137364 C77.6105863,239.508902 61.9490935,244.835126 50.6343598,240.953256" id="Fill-248" fill="#71222B"></path>
                <line x1="69.5740906" y1="247.228113" x2="79.0566593" y2="283.182539" id="Stroke-249" stroke="#858585" stroke-width="4"></line>
                <line x1="33.8546608" y1="247.228113" x2="43.3372294" y2="283.182539" id="Stroke-250" stroke="#858585" stroke-width="4"></line>
                <path d="M76.8568795,245.582092 C76.8568795,247.965625 74.9245389,249.767442 72.5412741,249.767442 L32.5285299,249.767442 C30.3074797,249.767442 28.2604609,248.216467 27.5517122,245.582092 L23.0483784,220.096413 C23.0483784,217.713416 24.980719,215.927982 27.3637152,215.927982 L66.8876672,215.927982 C69.1073746,215.927982 71.7745149,217.531865 72.3535457,220.096413 L76.8568795,245.582092 Z" id="Fill-251" fill="#F0BC5C"></path>
                <path d="M130.196704,351.733254 C130.196704,353.08549 124.872092,354.181512 118.305357,354.181512 C111.73701,354.181512 106.413204,353.08549 106.413204,351.733254 C106.413204,350.381824 111.73701,349.286608 118.305357,349.286608 C124.872092,349.286608 130.196704,350.381824 130.196704,351.733254" id="Fill-252" fill="#EBEBEB"></path>
                <path d="M130.366277,352.112229 L118.406177,351.898987 C116.336867,350.632962 116.761203,346.98582 118.670984,346.255317 L122.820884,345.895169 C122.820884,345.895169 129.365328,348.324358 129.989746,348.9708 C130.613896,349.615898 130.366277,352.112229 130.366277,352.112229" id="Fill-253" fill="#F0BC5C"></path>
                <path d="M91.9097724,284.412603 C91.9097724,285.511043 91.2184806,286.292573 90.3641685,286.292573 L37.6347701,286.292573 C36.4767086,286.292573 35.5367236,285.511043 35.5367236,284.412603 C35.5367236,283.313626 36.4767086,282.532633 37.6347701,282.532633 L90.3641685,282.532633 C91.2184806,282.532633 91.9097724,283.313626 91.9097724,284.412603" id="Fill-254" fill="#F0BC5C"></path>
                <polygon id="Fill-255" fill="#E39144" points="104.472618 356.12003 105.815454 356.12003 105.815454 244.396099 104.472618 244.396099"></polygon>
            </g>
        </g>
    </g>
</svg>