<?xml version="1.0" encoding="UTF-8"?>
<svg width="36px" height="35px" viewBox="0 0 36 35" version="1.1" xmlns="http://www.w3.org/2000/svg" xmlns:xlink="http://www.w3.org/1999/xlink">
    <!-- Generator: sketchtool 64 (101010) - https://sketch.com -->
    <title>300B090E-50C2-4140-8376-7F039DA74975</title>
    <desc>Created with sketchtool.</desc>
    <defs>
        <polygon id="path-1" points="3.09734513e-05 0.249026549 34.7509735 0.249026549 34.7509735 35 3.09734513e-05 35"></polygon>
    </defs>
    <g id="Homepage" stroke="none" stroke-width="1" fill="none" fill-rule="evenodd">
        <g transform="translate(-901.000000, -6689.000000)" id="Group-6">
            <g transform="translate(901.336667, 6688.778761)">
                <g id="Group-3" transform="translate(0.000000, 0.060708)">
                    <mask id="mask-2" fill="white">
                        <use xlink:href="#path-1"></use>
                    </mask>
                    <g id="Clip-2"></g>
                    <path d="M17.3755177,0.249026549 C26.9717124,0.249026549 34.7510044,8.02831858 34.7510044,17.6245133 C34.7510044,27.220708 26.9717124,35 17.3755177,35 C7.77932301,35 3.09734513e-05,27.220708 3.09734513e-05,17.6245133 C3.09734513e-05,8.02831858 7.77932301,0.249026549 17.3755177,0.249026549" id="Fill-1" fill="#0F677F" mask="url(#mask-2)"></path>
                </g>
                <path d="M28.0185531,12.7969602 C27.2739513,13.1271372 26.4729779,13.3504558 25.6329779,13.4501903 C26.4906327,12.9363407 27.1488186,12.1232876 27.4594823,11.1528894 C26.6569602,11.6289513 25.7677124,11.9743053 24.8220929,12.1604558 C24.0644823,11.3535973 22.9850575,10.8493496 21.789792,10.8493496 C19.4965177,10.8493496 17.6365619,12.7093053 17.6365619,15.0025796 C17.6365619,15.3281106 17.6734204,15.644969 17.7446593,15.9491283 C14.2929779,15.7759867 11.2324912,14.1226239 9.18390708,11.6091283 C8.82647345,12.2224027 8.6214292,12.9363407 8.6214292,13.6973584 C8.6214292,15.1379336 9.35519027,16.4097035 10.4689956,17.1543053 C9.78850885,17.1329336 9.14766814,16.9461637 8.58797788,16.6342611 C8.58766814,16.6519159 8.58766814,16.6695708 8.58766814,16.6869159 C8.58766814,18.6992611 10.0198805,20.3777124 11.9194823,20.7593053 C11.5713407,20.8543938 11.2036858,20.9048805 10.8255,20.9048805 C10.5572699,20.9048805 10.2974027,20.8791726 10.0440398,20.830854 C10.5724469,22.4805 12.1059425,23.6813407 13.9237743,23.7151018 C12.5020929,24.8292168 10.7115177,25.4929779 8.76514602,25.4929779 C8.43063274,25.4929779 8.09921681,25.4734646 7.77492478,25.4347478 C9.61196018,26.6135973 11.7955885,27.3008982 14.1408982,27.3008982 C21.7801903,27.3008982 25.9578894,20.9724027 25.9578894,15.4835973 C25.9578894,15.3036416 25.9538628,15.1243053 25.9458097,14.9465177 C26.7579336,14.3611195 27.4619602,13.6298363 28.0185531,12.7969602" id="Fill-4" fill="#F1F2F2"></path>
            </g>
        </g>
    </g>
</svg>