<?xml version="1.0" encoding="UTF-8"?>
<svg width="35px" height="36px" viewBox="0 0 35 36" version="1.1" xmlns="http://www.w3.org/2000/svg" xmlns:xlink="http://www.w3.org/1999/xlink">
    <!-- Generator: sketchtool 64 (101010) - https://sketch.com -->
    <title>8D475057-1DFB-4CA7-B950-A22125C967FF</title>
    <desc>Created with sketchtool.</desc>
    <g id="Homepage" stroke="none" stroke-width="1" fill="none" fill-rule="evenodd">
        <g transform="translate(-1018.000000, -6688.000000)" id="Group-11">
            <g transform="translate(1018.010000, 6688.933628)">
                <path d="M17.5,0 C27.1649902,0 35,7.83500977 35,17.5 C35,27.1649902 27.1649902,35 17.5,35 C7.83500977,35 0,27.1649902 0,17.5 C0,7.83500977 7.83500977,0 17.5,0" id="Fill-1" fill="#0F677F"></path>
                <path d="M27.5814697,23.9831895 C27.5814697,25.9673203 25.9673682,27.5814902 23.9831689,27.5814902 L11.0168311,27.5814902 C9.03263184,27.5814902 7.41846191,25.9673203 7.41846191,23.9831895 L7.41846191,11.0167832 C7.41846191,9.03265234 9.03263184,7.41848242 11.0168311,7.41848242 L23.9833057,7.41848242 C25.9675049,7.41848242 27.5816748,9.03265234 27.5816748,11.0167832 L27.5816748,23.9831895 L27.5814697,23.9831895 Z M23.9831689,6.2771543 L11.0168311,6.2771543 C8.40338379,6.2771543 6.27720215,8.40333594 6.27720215,11.0167832 L6.27720215,23.9833262 C6.27720215,26.5967734 8.40338379,28.7229551 11.0168311,28.7229551 L23.9833057,28.7229551 C26.5968213,28.7229551 28.7229346,26.5967734 28.7229346,23.9833262 L28.7229346,11.0167832 C28.7229346,8.40333594 26.5966846,6.2771543 23.9831689,6.2771543 L23.9831689,6.2771543 Z" id="Fill-5" fill="#FFFFFF"></path>
                <path d="M17.5,22.2554473 C14.8778711,22.2554473 12.7445801,20.1220879 12.7445801,17.5000273 C12.7445801,14.8779668 14.8779395,12.7446074 17.5,12.7446074 C20.1220605,12.7446074 22.2554199,14.8779668 22.2554199,17.5000273 C22.2554199,20.1220879 20.1221289,22.2554473 17.5,22.2554473 M17.5,11.6032109 C14.2484863,11.6032109 11.603252,14.2485137 11.603252,17.5000273 C11.603252,20.751541 14.2484863,23.396707 17.5,23.396707 C20.7515137,23.396707 23.396748,20.751541 23.396748,17.5000273 C23.396748,14.2485137 20.7515137,11.6032109 17.5,11.6032109" id="Fill-7" fill="#FFFFFF"></path>
                <path d="M23.5869238,9.13041309 C24.4274023,9.13041309 25.1086719,9.81175098 25.1086719,10.6521611 C25.1086719,11.4926396 24.4274023,12.1739092 23.5869238,12.1739092 C22.7465137,12.1739092 22.0651758,11.4926396 22.0651758,10.6521611 C22.0651758,9.81175098 22.7465137,9.13041309 23.5869238,9.13041309" id="Fill-9" fill="#FFFFFF"></path>
            </g>
        </g>
    </g>
</svg>